<svg width="31" height="32" viewBox="0 0 31 32" fill="none" xmlns="http://www.w3.org/2000/svg">
<path fill-rule="evenodd" clip-rule="evenodd" d="M25.6634 5.32454C26.036 5.33784 26.4089 5.35117 26.7815 5.36449C27.0902 5.36449 27.497 5.3361 27.7399 5.40441C28.2458 5.40441 28.7517 5.40441 29.2575 5.40441C29.6611 5.54939 29.9724 5.85787 30.0162 6.36488C30.0029 6.36488 29.9896 6.36488 29.9763 6.36488C29.963 6.44444 29.9497 6.52461 29.9363 6.60447C29.9231 6.60447 29.9097 6.60447 29.8965 6.60447C29.8965 6.645 29.8965 6.68465 29.8965 6.72487C29.8699 6.73789 29.8431 6.75149 29.8166 6.76478C29.8166 6.79141 29.8166 6.81803 29.8166 6.84465C29.4972 7.1514 29.1776 7.45815 28.8581 7.76459C27.9265 8.71145 26.9945 9.65859 26.0627 10.6052C24.6385 10.6052 23.2139 10.6052 21.7897 10.6052C21.4703 10.9383 21.1507 11.2719 20.8312 11.605C20.7647 11.6585 20.6981 11.7118 20.6315 11.7653C20.3538 12.1499 20.0028 12.4349 19.6732 12.7651C19.2339 13.2188 18.7946 13.672 18.3553 14.1257C18.0895 14.3179 17.8647 14.537 17.6364 14.7656C16.9576 15.4589 16.2786 16.1523 15.5998 16.8456C15.5599 16.8456 15.5199 16.8456 15.48 16.8456C15.4667 16.8723 15.4534 16.8992 15.44 16.9258C15.3735 16.9391 15.307 16.9524 15.2404 16.9657C15.2404 16.9791 15.2404 16.9924 15.2404 17.006C15.0086 17.08 14.5904 16.9194 14.4816 16.8456C14.4151 16.7661 14.3485 16.6859 14.282 16.6057C14.2554 16.5924 14.2286 16.5791 14.2021 16.5658C14.1888 16.5126 14.1754 16.459 14.1622 16.4058C14.1488 16.4058 14.1355 16.4058 14.1222 16.4058C14.1222 16.3795 14.1222 16.3525 14.1222 16.3259C14.1089 16.3259 14.0956 16.3259 14.0823 16.3259C14.0823 16.2993 14.0823 16.2727 14.0823 16.2461C14.0689 16.2461 14.0557 16.2461 14.0423 16.2461C14.0423 16.0857 14.0423 15.9257 14.0423 15.7657C14.0557 15.7657 14.0689 15.7657 14.0823 15.7657C14.0956 15.7124 14.1089 15.6589 14.1222 15.6057C14.1355 15.6057 14.1488 15.6057 14.1622 15.6057C14.1622 15.5657 14.1622 15.5258 14.1622 15.4855C14.1888 15.4725 14.2154 15.4589 14.242 15.4459C14.242 15.419 14.242 15.3924 14.242 15.3658C14.2554 15.3658 14.2686 15.3658 14.282 15.3658C14.3393 15.2949 14.3726 15.2697 14.4017 15.1658C14.4284 15.1658 14.4549 15.1658 14.4816 15.1658C14.5098 15.0419 14.5595 14.9956 14.6812 14.9656C14.6812 14.9389 14.6812 14.9123 14.6812 14.8854C14.7079 14.8854 14.7346 14.8854 14.7612 14.8854C14.7612 14.8588 14.7612 14.8321 14.7612 14.8055C14.7878 14.8055 14.8144 14.8055 14.841 14.8055C14.841 14.7792 14.841 14.752 14.841 14.7256C14.8676 14.7256 14.8943 14.7256 14.9209 14.7256C14.9209 14.699 14.9209 14.6724 14.9209 14.6458C14.9475 14.6458 14.9741 14.6458 15.0007 14.6458C15.0296 14.5352 15.0119 14.5561 15.1205 14.5257C15.1205 14.4988 15.1205 14.4721 15.1205 14.4455C15.1472 14.4455 15.1738 14.4455 15.2004 14.4455C15.2004 14.4189 15.2004 14.3926 15.2004 14.3654C15.2271 14.3654 15.2537 14.3654 15.2803 14.3654C15.2803 14.339 15.2803 14.3124 15.2803 14.2858C15.307 14.2858 15.3336 14.2858 15.3602 14.2858C15.3602 14.2592 15.3602 14.2322 15.3602 14.2056C15.3868 14.2056 15.4134 14.2056 15.44 14.2056C15.44 14.179 15.44 14.1524 15.44 14.1257C15.4667 14.1257 15.4933 14.1257 15.5199 14.1257C15.5488 14.0152 15.5311 14.0361 15.6397 14.0054C15.6397 13.979 15.6397 13.9518 15.6397 13.9255C15.6663 13.9255 15.6929 13.9255 15.7196 13.9255C15.7196 13.8989 15.7196 13.8723 15.7196 13.8457C15.7462 13.8457 15.7729 13.8457 15.7994 13.8457C15.7994 13.8187 15.7994 13.7921 15.7994 13.7655C15.8261 13.7655 15.8527 13.7655 15.8794 13.7655C15.8794 13.7389 15.8794 13.7122 15.8794 13.6853C15.906 13.6853 15.9326 13.6853 15.9592 13.6853C15.9592 13.6587 15.9592 13.6321 15.9592 13.6054C15.9858 13.6054 16.0124 13.6054 16.0391 13.6054C16.0679 13.4949 16.0502 13.516 16.1589 13.4857C16.1589 13.459 16.1589 13.4321 16.1589 13.4055C16.1855 13.4055 16.2121 13.4055 16.2387 13.4055C16.2387 13.3789 16.2387 13.3523 16.2387 13.3256C16.2653 13.3256 16.292 13.3256 16.3186 13.3256C16.3186 13.2987 16.3186 13.2721 16.3186 13.2455C16.3452 13.2455 16.3718 13.2455 16.3985 13.2455C16.3985 13.2188 16.3985 13.1922 16.3985 13.1653C16.425 13.1653 16.4518 13.1653 16.4784 13.1653C16.4784 13.1387 16.4784 13.1121 16.4784 13.0855C16.505 13.0855 16.5316 13.0855 16.5582 13.0855C16.5871 12.9749 16.5693 12.996 16.6781 12.9656C16.6781 12.939 16.6781 12.9121 16.6781 12.8855C16.7047 12.8855 16.7313 12.8855 16.7579 12.8855C16.7579 12.8588 16.7579 12.8322 16.7579 12.8056C16.7845 12.8056 16.8111 12.8056 16.8378 12.8056C16.8903 12.6077 17.2545 12.3478 17.3969 12.2052C17.3969 12.1921 17.3969 12.1785 17.3969 12.1655C17.8361 11.7384 18.2755 11.3118 18.7147 10.885C18.8523 10.7472 19.0797 10.4173 19.2738 10.3652C19.2738 10.3386 19.2738 10.312 19.2738 10.2851C19.3004 10.2851 19.327 10.2851 19.3537 10.2851C19.3537 10.2585 19.3537 10.2319 19.3537 10.2052C19.3803 10.2052 19.4069 10.2052 19.4335 10.2052C19.4335 10.1786 19.4335 10.1517 19.4335 10.1251C19.4601 10.1251 19.4867 10.1251 19.5134 10.1251C19.5422 10.0145 19.5245 10.0354 19.6332 10.0047C19.6332 9.97806 19.6332 9.95174 19.6332 9.92512C19.6598 9.92512 19.6864 9.92512 19.713 9.92512C19.713 9.8985 19.713 9.87157 19.713 9.84495C19.7396 9.84495 19.7664 9.84495 19.7929 9.84495C19.7929 9.81832 19.7929 9.7917 19.7929 9.76508C19.8196 9.76508 19.8462 9.76508 19.8728 9.76508C19.8728 9.73819 19.8728 9.71156 19.8728 9.68494C19.8994 9.68494 19.9261 9.68494 19.9527 9.68494C19.9527 9.65832 19.9527 9.63139 19.9527 9.60477C20.063 9.57584 20.0421 9.59379 20.0725 9.48495C20.0991 9.48495 20.1257 9.48495 20.1524 9.48495C20.1524 9.45833 20.1524 9.43171 20.1524 9.40509C20.179 9.40509 20.2056 9.40509 20.2322 9.40509C20.2322 9.37847 20.2322 9.35157 20.2322 9.32495C20.2588 9.32495 20.2854 9.32495 20.3121 9.32495C20.3121 9.29833 20.3121 9.27171 20.3121 9.24478C20.3387 9.24478 20.3653 9.24478 20.392 9.24478C20.4706 8.8023 20.4319 8.19316 20.4319 7.68472C20.4319 6.75149 20.4319 5.81765 20.4319 4.88438C20.5289 4.82797 20.5623 4.73451 20.6315 4.68473C20.9719 4.43816 21.2189 4.13577 21.5102 3.84408C22.189 3.17761 22.868 2.51091 23.5468 1.84417C23.7332 1.64449 23.9196 1.44395 24.1058 1.24427C24.1326 1.24427 24.1592 1.24427 24.1858 1.24427C24.1991 1.21738 24.2124 1.19076 24.2257 1.16413C24.2524 1.16413 24.2789 1.16413 24.3056 1.16413C24.3189 1.13751 24.3321 1.11086 24.3455 1.08396C24.4132 1.04228 24.7273 0.9601 24.8647 1.0041C24.8647 1.01739 24.8647 1.03072 24.8647 1.04401C24.9045 1.04401 24.9445 1.04401 24.9845 1.04401C24.9845 1.05734 24.9845 1.07063 24.9845 1.08396C25.0111 1.08396 25.0377 1.08396 25.0643 1.08396C25.0776 1.11086 25.091 1.13751 25.1043 1.16413C25.1442 1.16413 25.1842 1.16413 25.224 1.16413C25.224 1.17743 25.224 1.19076 25.224 1.20405C25.304 1.27089 25.3838 1.33716 25.4637 1.40431C25.4637 1.43093 25.4637 1.45755 25.4637 1.48418C25.477 1.48418 25.4903 1.48418 25.5037 1.48418C25.5037 1.51107 25.5037 1.53769 25.5037 1.56435C25.5169 1.56435 25.5303 1.56435 25.5435 1.56435C25.5435 1.60399 25.5435 1.64449 25.5435 1.68413C25.5569 1.68413 25.5702 1.68413 25.5835 1.68413C25.5835 1.91071 25.5835 2.13732 25.5835 2.36416C25.652 2.61131 25.5532 3.03063 25.6234 3.28441C25.6367 3.28441 25.6501 3.28441 25.6634 3.28441C25.6634 3.96386 25.6634 4.6442 25.6634 5.32454ZM18.3153 7.08486C18.1956 7.04491 18.0758 7.00469 17.9559 6.96474C17.9559 6.95144 17.9559 6.93812 17.9559 6.92482C17.8761 6.91149 17.7962 6.8982 17.7163 6.8846C17.7163 6.87127 17.7163 6.85798 17.7163 6.84465C17.6897 6.84465 17.6631 6.84465 17.6364 6.84465C17.6364 6.83163 17.6364 6.81803 17.6364 6.80501C17.5566 6.79141 17.4767 6.77838 17.3969 6.76478C17.3969 6.75149 17.3969 6.73789 17.3969 6.72487C17.3569 6.72487 17.3169 6.72487 17.2771 6.72487C17.2771 6.71127 17.2771 6.69825 17.2771 6.68465C17.1839 6.67162 17.0907 6.65802 16.9975 6.645C16.9975 6.6314 16.9975 6.61807 16.9975 6.60447C16.9044 6.59145 16.8111 6.57785 16.7179 6.56483C16.7179 6.55123 16.7179 6.53821 16.7179 6.52461C16.1988 6.43141 15.6796 6.33795 15.1605 6.24448C14.9875 6.24448 14.8144 6.24448 14.6413 6.24448C14.6413 6.23146 14.6413 6.21786 14.6413 6.20453C14.4342 6.14666 13.5187 6.20106 13.3635 6.24448C13.1904 6.24448 13.0173 6.24448 12.8443 6.24448C12.8443 6.25808 12.8443 6.2711 12.8443 6.2847C12.7378 6.2847 12.6313 6.2847 12.5248 6.2847C12.5248 6.29773 12.5248 6.31133 12.5248 6.32435C12.4316 6.32435 12.3385 6.32435 12.2453 6.32435C12.2453 6.33795 12.2453 6.35128 12.2453 6.36488C12.1787 6.36488 12.1122 6.36488 12.0456 6.36488C12.0456 6.3779 12.0456 6.3915 12.0456 6.40452C11.9658 6.40452 11.8858 6.40452 11.8059 6.40452C11.8059 6.41781 11.8059 6.43141 11.8059 6.44444C11.7527 6.44444 11.6995 6.44444 11.6462 6.44444C11.6462 6.45804 11.6462 6.47106 11.6462 6.48466C11.5264 6.49799 11.4066 6.51159 11.2869 6.52461C10.8076 6.68465 10.3283 6.84465 9.84917 7.00469C9.84917 7.01798 9.84917 7.03158 9.84917 7.04491C9.79596 7.05824 9.74265 7.07126 9.68944 7.08486C9.68944 7.09788 9.68944 7.11148 9.68944 7.1245C9.66285 7.1245 9.63623 7.1245 9.60954 7.1245C9.60954 7.1381 9.60954 7.1514 9.60954 7.165C9.56966 7.165 9.52971 7.165 9.48976 7.165C9.48976 7.17802 9.48976 7.19162 9.48976 7.20464C9.40992 7.23126 9.32999 7.25789 9.25019 7.28481C9.25019 7.29811 9.25019 7.31144 9.25019 7.32473C9.22357 7.32473 9.19688 7.32473 9.17026 7.32473C9.17026 7.33806 9.17026 7.35135 9.17026 7.36468C9.14367 7.36468 9.11705 7.36468 9.09043 7.36468C9.09043 7.37797 9.09043 7.3913 9.09043 7.4046C9.01053 7.43152 8.93069 7.45815 8.85079 7.48477C8.83753 7.51139 8.82417 7.53801 8.81081 7.56494C8.73101 7.59156 8.65108 7.61818 8.57125 7.64481C8.55792 7.67143 8.54466 7.69805 8.5313 7.72467C8.47809 7.73797 8.42477 7.75129 8.37156 7.76459C8.3583 7.79121 8.34494 7.81814 8.33161 7.84476C8.2784 7.85805 8.22516 7.87138 8.17185 7.88468C8.17185 7.898 8.17185 7.91133 8.17185 7.92463C8.132 7.93823 8.09205 7.95155 8.05207 7.96485C8.03884 7.9912 8.02548 8.01782 8.01212 8.04444C7.98553 8.04444 7.95891 8.04444 7.93228 8.04444C7.9057 8.08494 7.87907 8.12458 7.85249 8.1648C7.82576 8.1648 7.79917 8.1648 7.77255 8.1648C7.75922 8.19142 7.74596 8.21835 7.7326 8.24497C7.70598 8.24497 7.67939 8.24497 7.65277 8.24497C7.62618 8.28462 7.59946 8.32484 7.57287 8.36479C7.54625 8.36479 7.51966 8.36479 7.49304 8.36479C7.46642 8.40471 7.43973 8.44493 7.4131 8.48488C7.38652 8.48488 7.35989 8.48488 7.33331 8.48488C7.29332 8.53812 7.25337 8.59137 7.21352 8.64488C7.1868 8.64488 7.16021 8.64488 7.13359 8.64488C7.06702 8.72475 7.00048 8.80492 6.93391 8.88509C6.90729 8.88509 6.8807 8.88509 6.85408 8.88509C6.76092 8.99185 6.66772 9.09834 6.57456 9.20486C6.34826 9.41811 6.12195 9.6317 5.89565 9.84495C5.89565 9.87157 5.89565 9.8985 5.89565 9.92512C5.81582 9.99166 5.73588 10.0582 5.65598 10.1251C5.65598 10.1517 5.65598 10.1786 5.65598 10.2052C5.60277 10.2449 5.54953 10.2851 5.49622 10.325C5.49622 10.3516 5.49622 10.3783 5.49622 10.4052C5.45637 10.4318 5.41642 10.4587 5.37647 10.4854C5.37647 10.512 5.37647 10.5386 5.37647 10.5652C5.33649 10.5921 5.29664 10.6188 5.25669 10.6454C5.25669 10.6717 5.25669 10.6986 5.25669 10.7252C5.23007 10.7386 5.20344 10.7519 5.17675 10.7652C5.17675 10.7918 5.17675 10.8184 5.17675 10.8453C5.13691 10.872 5.09692 10.8986 5.05697 10.9252C5.05697 10.9518 5.05697 10.9787 5.05697 11.0054C5.03035 11.0184 5.00376 11.032 4.97714 11.045C4.97714 11.0716 4.97714 11.0986 4.97714 11.1252C4.95055 11.1388 4.92383 11.1518 4.89724 11.1654C4.88398 11.2183 4.87062 11.2719 4.85729 11.3249C4.83067 11.3385 4.80405 11.3518 4.77746 11.3654C4.7641 11.4186 4.75084 11.4718 4.73751 11.5254C4.71089 11.5384 4.68426 11.552 4.65768 11.565C4.63105 11.6452 4.60436 11.7251 4.57774 11.8052C4.55115 11.8185 4.52453 11.8318 4.49794 11.8452C4.49794 11.8718 4.49794 11.8987 4.49794 11.9253C4.48458 11.9253 4.47132 11.9253 4.45796 11.9253C4.45796 11.9519 4.45796 11.9785 4.45796 12.0052C4.44463 12.0052 4.43137 12.0052 4.41801 12.0052C4.41801 12.0321 4.41801 12.0587 4.41801 12.0853C4.40475 12.0853 4.39139 12.0853 4.37816 12.0853C4.37816 12.112 4.37816 12.1386 4.37816 12.1655C4.3648 12.1655 4.35144 12.1655 4.33818 12.1655C4.33818 12.1921 4.33818 12.2188 4.33818 12.2454C4.32485 12.2454 4.31159 12.2454 4.29823 12.2454C4.27161 12.3255 4.24502 12.4051 4.2184 12.4853C4.20507 12.4853 4.19171 12.4853 4.17845 12.4853C4.17845 12.5252 4.17845 12.5654 4.17845 12.6054C4.16508 12.6054 4.15182 12.6054 4.1385 12.6054C4.1385 12.632 4.1385 12.6586 4.1385 12.6855C4.12513 12.6855 4.11187 12.6855 4.09855 12.6855C4.09855 12.7121 4.09855 12.7388 4.09855 12.7651C4.08529 12.7651 4.07192 12.7651 4.05866 12.7651C4.05866 12.7917 4.05866 12.8186 4.05866 12.8452C4.0453 12.8452 4.03197 12.8452 4.01871 12.8452C4.01871 12.8855 4.01871 12.9251 4.01871 12.9656C4.00535 12.9656 3.99209 12.9656 3.97876 12.9656C3.97876 12.9923 3.97876 13.0189 3.97876 13.0455C3.9654 13.0455 3.95214 13.0455 3.93878 13.0455C3.92552 13.1254 3.91219 13.2052 3.89893 13.2851C3.88557 13.2851 3.87221 13.2851 3.85898 13.2851C3.85898 13.3117 3.85898 13.3386 3.85898 13.3653C3.84562 13.3653 3.83236 13.3653 3.819 13.3653C3.68589 13.8457 3.55274 14.3254 3.4197 14.8055C3.39301 15.0457 3.36639 15.2856 3.3398 15.5258C3.32654 15.5258 3.31318 15.5258 3.29982 15.5258C3.29982 15.6323 3.29982 15.739 3.29982 15.8458C3.28656 15.8458 3.27323 15.8458 3.25997 15.8458C3.25997 16.0189 3.25997 16.1925 3.25997 16.3659C3.24661 16.3659 3.23325 16.3659 3.22002 16.3659C3.16222 16.5731 3.21638 17.4907 3.25997 17.6458C3.25997 17.8194 3.25997 17.9927 3.25997 18.1658C3.27323 18.1658 3.28656 18.1658 3.29982 18.1658C3.29982 18.2726 3.29982 18.3794 3.29982 18.4861C3.31318 18.4861 3.32654 18.4861 3.3398 18.4861C3.3398 18.5793 3.3398 18.6728 3.3398 18.766C3.35313 18.766 3.36639 18.766 3.37975 18.766C3.37975 18.8325 3.37975 18.8994 3.37975 18.966C3.39301 18.966 3.40634 18.966 3.4197 18.966C3.4197 19.0461 3.4197 19.1263 3.4197 19.2061C3.43296 19.2061 3.44632 19.2061 3.45958 19.2061C3.45958 19.2596 3.45958 19.3129 3.45958 19.3662C3.47291 19.3662 3.48627 19.3662 3.49953 19.3662C3.49953 19.4327 3.49953 19.4996 3.49953 19.5661C3.51286 19.5661 3.52612 19.5661 3.53948 19.5661C3.53948 19.6194 3.53948 19.6729 3.53948 19.7261C3.55274 19.7261 3.56611 19.7261 3.57943 19.7261C3.59269 19.8196 3.60606 19.9131 3.61932 20.0063C3.63264 20.0063 3.64601 20.0063 3.65927 20.0063C3.65927 20.0462 3.65927 20.0864 3.65927 20.1261C3.67263 20.1261 3.68589 20.1261 3.69922 20.1261C3.69922 20.1796 3.69922 20.2329 3.69922 20.2861C3.71248 20.2861 3.72584 20.2861 3.7392 20.2861C3.7392 20.3263 3.7392 20.3662 3.7392 20.4059C3.75243 20.4059 3.76579 20.4059 3.77905 20.4059C3.77905 20.4464 3.77905 20.4861 3.77905 20.5263C3.79241 20.5263 3.80574 20.5263 3.819 20.5263C3.819 20.5662 3.819 20.6065 3.819 20.6461C3.83236 20.6461 3.84562 20.6461 3.85898 20.6461C3.85898 20.6727 3.85898 20.6996 3.85898 20.7262C3.87221 20.7262 3.88557 20.7262 3.89893 20.7262C3.91219 20.8061 3.92552 20.8863 3.93878 20.9664C3.95214 20.9664 3.9654 20.9664 3.97876 20.9664C3.97876 20.993 3.97876 21.0197 3.97876 21.0463C3.99209 21.0463 4.00535 21.0463 4.01871 21.0463C4.01871 21.0865 4.01871 21.1265 4.01871 21.1664C4.03197 21.1664 4.0453 21.1664 4.05866 21.1664C4.07192 21.2199 4.08529 21.2732 4.09855 21.3264C4.11187 21.3264 4.12513 21.3264 4.1385 21.3264C4.1385 21.3533 4.1385 21.38 4.1385 21.4066C4.15182 21.4066 4.16508 21.4066 4.17845 21.4066C4.17845 21.4462 4.17845 21.4867 4.17845 21.5264C4.19171 21.5264 4.20507 21.5264 4.2184 21.5264C4.24502 21.6065 4.27161 21.6864 4.29823 21.7666C4.31159 21.7666 4.32485 21.7666 4.33818 21.7666C4.33818 21.7932 4.33818 21.8198 4.33818 21.8464C4.35144 21.8464 4.3648 21.8464 4.37816 21.8464C4.37816 21.8734 4.37816 21.9 4.37816 21.9266C4.39139 21.9266 4.40475 21.9266 4.41801 21.9266C4.44463 22.0065 4.47132 22.0863 4.49794 22.1665C4.52453 22.1798 4.55115 22.1931 4.57774 22.2064C4.60436 22.2866 4.63105 22.3662 4.65768 22.4463C4.68426 22.4599 4.71089 22.473 4.73751 22.4866C4.75084 22.5401 4.7641 22.5933 4.77746 22.6466C4.80405 22.6599 4.83067 22.6735 4.85729 22.6865C4.87062 22.7398 4.88398 22.7933 4.89724 22.8465C4.92383 22.8596 4.95055 22.8732 4.97714 22.8862C4.97714 22.9131 4.97714 22.9397 4.97714 22.9666C4.9904 22.9666 5.00376 22.9666 5.01702 22.9666C5.03035 23.0065 5.04371 23.0465 5.05697 23.0867C5.08359 23.1 5.11028 23.1133 5.13691 23.1267C5.13691 23.1533 5.13691 23.1799 5.13691 23.2068C5.17675 23.2334 5.2167 23.2601 5.25669 23.2867C5.25669 23.3133 5.25669 23.3402 5.25669 23.3668C5.29664 23.3935 5.33649 23.4201 5.37647 23.4467C5.37647 23.4736 5.37647 23.5002 5.37647 23.5269C5.41642 23.5532 5.45637 23.5798 5.49622 23.6068C5.49622 23.6334 5.49622 23.66 5.49622 23.6866C5.54953 23.7268 5.60277 23.7668 5.65598 23.8067C5.65598 23.8333 5.65598 23.8602 5.65598 23.8868C5.73588 23.9531 5.81582 24.02 5.89565 24.0865C5.89565 24.1135 5.89565 24.1401 5.89565 24.1667C6.12195 24.3799 6.34826 24.5932 6.57456 24.8068C6.66772 24.9136 6.76092 25.0204 6.85408 25.1266C6.8807 25.1266 6.90729 25.1266 6.93391 25.1266C7.00048 25.2067 7.06702 25.2869 7.13359 25.3668C7.16021 25.3668 7.1868 25.3668 7.21352 25.3668C7.25337 25.4203 7.29332 25.4735 7.33331 25.5268C7.35989 25.5268 7.38652 25.5268 7.4131 25.5268C7.43973 25.5673 7.46642 25.6069 7.49304 25.6469C7.51966 25.6469 7.54625 25.6469 7.57287 25.6469C7.59946 25.6871 7.62618 25.727 7.65277 25.767C7.67939 25.767 7.70598 25.767 7.7326 25.767C7.75922 25.8069 7.78591 25.8471 7.81254 25.8868C7.83912 25.8868 7.86575 25.8868 7.89233 25.8868C7.9057 25.9134 7.91896 25.9403 7.93228 25.9669C7.95891 25.9669 7.98553 25.9669 8.01212 25.9669C8.02548 25.9936 8.03884 26.0202 8.05207 26.0468C8.09205 26.0601 8.132 26.0737 8.17185 26.087C8.17185 26.1003 8.17185 26.1136 8.17185 26.127C8.22516 26.1403 8.2784 26.1536 8.33161 26.1669C8.34494 26.1935 8.3583 26.2204 8.37156 26.2471C8.42477 26.2603 8.47809 26.2737 8.5313 26.287C8.54466 26.3133 8.55792 26.3402 8.57125 26.3668C8.65108 26.3935 8.73101 26.4201 8.81081 26.4467C8.82417 26.4736 8.83753 26.5003 8.85079 26.5269C8.87738 26.5269 8.90411 26.5269 8.93069 26.5269C8.93069 26.5402 8.93069 26.5535 8.93069 26.5668C8.95732 26.5668 8.9839 26.5668 9.01053 26.5668C9.01053 26.5801 9.01053 26.5937 9.01053 26.607C9.03715 26.607 9.06384 26.607 9.09043 26.607C9.09043 26.6203 9.09043 26.6337 9.09043 26.647C9.11705 26.647 9.14367 26.647 9.17026 26.647C9.17026 26.6603 9.17026 26.6736 9.17026 26.6869C9.19688 26.6869 9.22357 26.6869 9.25019 26.6869C9.25019 26.6999 9.25019 26.7135 9.25019 26.7268C9.27678 26.7268 9.3034 26.7268 9.32999 26.7268C9.32999 26.7404 9.32999 26.7535 9.32999 26.7671C9.40992 26.7937 9.48976 26.8203 9.56966 26.8469C9.56966 26.8602 9.56966 26.8738 9.56966 26.8869C9.63613 26.9005 9.7028 26.9135 9.76927 26.9271C9.76927 26.9404 9.76927 26.9537 9.76927 26.967C9.79589 26.967 9.82258 26.967 9.84917 26.967C9.84917 26.9803 9.84917 26.9937 9.84917 27.0073C9.88915 27.0073 9.929 27.0073 9.96895 27.0073C9.96895 27.0206 9.96895 27.0339 9.96895 27.0472C9.99557 27.0472 10.0222 27.0472 10.0489 27.0472C10.0489 27.0605 10.0489 27.0738 10.0489 27.0871C10.1287 27.1004 10.2086 27.1134 10.2885 27.127C10.2885 27.1406 10.2885 27.154 10.2885 27.167C10.3151 27.167 10.3417 27.167 10.3684 27.167C10.3684 27.1806 10.3684 27.1936 10.3684 27.2072C10.4881 27.2338 10.6079 27.2605 10.7277 27.2874C10.7277 27.3004 10.7277 27.314 10.7277 27.327C10.781 27.327 10.8343 27.327 10.8875 27.327C10.8875 27.3406 10.8875 27.3536 10.8875 27.3673C10.9274 27.3673 10.9674 27.3673 11.0073 27.3673C11.0073 27.3803 11.0073 27.3939 11.0073 27.4072C11.1004 27.4208 11.1937 27.4338 11.2869 27.4474C11.2869 27.4604 11.2869 27.474 11.2869 27.487C11.3401 27.487 11.3933 27.487 11.4466 27.487C11.4466 27.5006 11.4466 27.5137 11.4466 27.527C11.5664 27.5406 11.6862 27.5536 11.8059 27.5672C11.8059 27.5802 11.8059 27.5938 11.8059 27.6069C11.8858 27.6069 11.9658 27.6069 12.0456 27.6069C12.0456 27.6205 12.0456 27.6335 12.0456 27.6471C12.1122 27.6471 12.1787 27.6471 12.2453 27.6471C12.2453 27.6604 12.2453 27.674 12.2453 27.687C12.3385 27.687 12.4316 27.687 12.5248 27.687C12.5248 27.7006 12.5248 27.7136 12.5248 27.7272C12.8043 27.7402 13.084 27.7538 13.3635 27.7669C13.3635 27.7805 13.3635 27.7938 13.3635 27.8074C13.5707 27.865 14.4862 27.8109 14.6413 27.7669C14.9208 27.7538 15.2004 27.7402 15.48 27.7272C15.48 27.7136 15.48 27.7006 15.48 27.687C15.5731 27.687 15.6663 27.687 15.7595 27.687C15.7595 27.674 15.7595 27.6604 15.7595 27.6471C15.8261 27.6471 15.8926 27.6471 15.9592 27.6471C15.9592 27.6335 15.9592 27.6205 15.9592 27.6069C16.0391 27.6069 16.1189 27.6069 16.1988 27.6069C16.1988 27.5938 16.1988 27.5802 16.1988 27.5672C16.252 27.5672 16.3053 27.5672 16.3586 27.5672C16.3586 27.5536 16.3586 27.5406 16.3586 27.527C16.4784 27.5137 16.5981 27.5006 16.7179 27.487C16.7179 27.474 16.7179 27.4604 16.7179 27.4474C16.7579 27.4474 16.7979 27.4474 16.8378 27.4474C16.8378 27.4338 16.8378 27.4208 16.8378 27.4072C16.891 27.4072 16.9442 27.4072 16.9975 27.4072C16.9975 27.3939 16.9975 27.3803 16.9975 27.3673C17.0374 27.3673 17.0774 27.3673 17.1173 27.3673C17.1173 27.3536 17.1173 27.3406 17.1173 27.327C17.1706 27.327 17.2238 27.327 17.2771 27.327C17.2771 27.314 17.2771 27.3004 17.2771 27.2874C17.3169 27.2874 17.3569 27.2874 17.3969 27.2874C17.3969 27.2738 17.3969 27.2605 17.3969 27.2469C17.4368 27.2469 17.4768 27.2469 17.5166 27.2469C17.5166 27.2338 17.5166 27.2202 17.5166 27.2072C17.5566 27.2072 17.5965 27.2072 17.6364 27.2072C17.6364 27.1936 17.6364 27.1806 17.6364 27.167C17.6631 27.167 17.6897 27.167 17.7163 27.167C17.7163 27.154 17.7163 27.1406 17.7163 27.127C17.7962 27.1134 17.8761 27.1004 17.9559 27.0871C17.9559 27.0738 17.9559 27.0605 17.9559 27.0472C17.9826 27.0472 18.0092 27.0472 18.0358 27.0472C18.0358 27.0339 18.0358 27.0206 18.0358 27.0073C18.0758 27.0073 18.1156 27.0073 18.1556 27.0073C18.1556 26.9937 18.1556 26.9803 18.1556 26.967C18.2088 26.9537 18.2621 26.9404 18.3153 26.9271C18.3153 26.9135 18.3153 26.9005 18.3153 26.8869C18.3419 26.8869 18.3687 26.8869 18.3952 26.8869C18.3952 26.8738 18.3952 26.8602 18.3952 26.8469C18.4351 26.8469 18.4751 26.8469 18.515 26.8469C18.515 26.8333 18.515 26.8203 18.515 26.8067C18.5949 26.7801 18.6748 26.7535 18.7546 26.7268C18.7546 26.7135 18.7546 26.6999 18.7546 26.6869C18.7813 26.6869 18.8079 26.6869 18.8345 26.6869C18.8345 26.6736 18.8345 26.6603 18.8345 26.647C18.8611 26.647 18.8877 26.647 18.9144 26.647C18.9144 26.6337 18.9144 26.6203 18.9144 26.607C18.9943 26.5801 19.0741 26.5535 19.154 26.5269C19.1672 26.5003 19.1806 26.4736 19.194 26.4467C19.2738 26.4201 19.3537 26.3935 19.4335 26.3668C19.4469 26.3402 19.4601 26.3133 19.4735 26.287C19.5267 26.2737 19.58 26.2603 19.6332 26.2471C19.6465 26.2204 19.6598 26.1935 19.6732 26.1669C19.7264 26.1536 19.7796 26.1403 19.8329 26.127C19.8462 26.1003 19.8595 26.0737 19.8728 26.0468C19.8994 26.0468 19.9261 26.0468 19.9527 26.0468C19.9527 26.0335 19.9527 26.0202 19.9527 26.0068C19.9926 25.9936 20.0325 25.9802 20.0725 25.9669C20.0858 25.9403 20.0991 25.9134 20.1124 25.8868C20.139 25.8868 20.1657 25.8868 20.1923 25.8868C20.2056 25.8601 20.2189 25.8335 20.2322 25.8069C20.2722 25.7936 20.3121 25.78 20.352 25.767C20.3786 25.727 20.4053 25.6871 20.4319 25.6469C20.4585 25.6469 20.4851 25.6469 20.5117 25.6469C20.5384 25.6069 20.5651 25.5673 20.5917 25.5268C20.6183 25.5268 20.6449 25.5268 20.6715 25.5268C20.7115 25.4735 20.7514 25.4203 20.7913 25.3668C20.818 25.3668 20.8446 25.3668 20.8712 25.3668C20.9378 25.2869 21.0043 25.2067 21.0709 25.1266C21.0975 25.1266 21.1241 25.1266 21.1507 25.1266C21.2838 24.9801 21.417 24.8334 21.5501 24.6864C21.7365 24.5134 21.9228 24.34 22.1092 24.1667C22.1092 24.1401 22.1092 24.1135 22.1092 24.0865C22.1891 24.02 22.2689 23.9531 22.3488 23.8868C22.3488 23.8602 22.3488 23.8333 22.3488 23.8067C22.402 23.7668 22.4552 23.7268 22.5086 23.6866C22.5086 23.66 22.5086 23.6334 22.5086 23.6068C22.5484 23.5798 22.5884 23.5532 22.6283 23.5269C22.6283 23.5002 22.6283 23.4736 22.6283 23.4467C22.6683 23.4201 22.7081 23.3935 22.7481 23.3668C22.7615 23.3266 22.7747 23.2867 22.7881 23.2465C22.8147 23.2334 22.8413 23.2198 22.8679 23.2068C22.8679 23.1799 22.8679 23.1533 22.8679 23.1267C22.8945 23.1133 22.9212 23.1 22.9478 23.0867C22.9611 23.0465 22.9744 23.0065 22.9878 22.9666C23.001 22.9666 23.0144 22.9666 23.0276 22.9666C23.0276 22.9397 23.0276 22.9131 23.0276 22.8862C23.0542 22.8732 23.0809 22.8596 23.1075 22.8465C23.1208 22.7933 23.1342 22.7398 23.1475 22.6865C23.1741 22.6735 23.2007 22.6599 23.2273 22.6466C23.2407 22.5933 23.2539 22.5401 23.2673 22.4866C23.2939 22.473 23.3205 22.4599 23.3471 22.4463C23.3737 22.3662 23.4004 22.2866 23.427 22.2064C23.4536 22.1931 23.4802 22.1798 23.5069 22.1665C23.5069 22.1399 23.5069 22.113 23.5069 22.0863C23.5202 22.0863 23.5335 22.0863 23.5468 22.0863C23.5468 22.0597 23.5468 22.0331 23.5468 22.0065C23.5601 22.0065 23.5734 22.0065 23.5868 22.0065C23.5868 21.9795 23.5868 21.9529 23.5868 21.9266C23.6 21.9266 23.6134 21.9266 23.6266 21.9266C23.6266 21.9 23.6266 21.8734 23.6266 21.8464C23.64 21.8464 23.6533 21.8464 23.6666 21.8464C23.6666 21.8198 23.6666 21.7932 23.6666 21.7666C23.6799 21.7666 23.6932 21.7666 23.7066 21.7666C23.7066 21.7399 23.7066 21.713 23.7066 21.6864C23.7199 21.6864 23.7332 21.6864 23.7465 21.6864C23.7731 21.6065 23.7997 21.5264 23.8263 21.4462C23.8397 21.4462 23.853 21.4462 23.8663 21.4462C23.8663 21.4066 23.8663 21.3664 23.8663 21.3264C23.8796 21.3264 23.8929 21.3264 23.9063 21.3264C23.9195 21.2732 23.9329 21.2199 23.9461 21.1664C23.9595 21.1664 23.9728 21.1664 23.9861 21.1664C24.1458 20.6866 24.3056 20.2062 24.4653 19.7261C24.4787 19.606 24.4919 19.486 24.5052 19.3662C24.5185 19.3662 24.5319 19.3662 24.5452 19.3662C24.5452 19.3129 24.5452 19.2596 24.5452 19.2061C24.5585 19.2061 24.5718 19.2061 24.5851 19.2061C24.5851 19.1263 24.5851 19.0461 24.5851 18.966C24.5984 18.966 24.6118 18.966 24.625 18.966C24.625 18.8994 24.625 18.8325 24.625 18.766C24.6384 18.766 24.6516 18.766 24.665 18.766C24.6916 18.5261 24.7182 18.2862 24.7448 18.046C24.7448 17.9126 24.7448 17.7792 24.7448 17.6458C24.7582 17.6458 24.7715 17.6458 24.7848 17.6458C24.8426 17.4383 24.7884 16.5213 24.7448 16.3659C24.7315 16.0857 24.7182 15.8056 24.705 15.5258C24.6916 15.5258 24.6782 15.5258 24.665 15.5258C24.665 15.4323 24.665 15.3391 24.665 15.2454C24.6516 15.2454 24.6384 15.2454 24.625 15.2454C24.625 15.1791 24.625 15.1123 24.625 15.0457C24.6118 15.0457 24.5984 15.0457 24.5851 15.0457C24.5851 14.9656 24.5851 14.8854 24.5851 14.8055C24.5718 14.8055 24.5585 14.8055 24.5452 14.8055C24.5319 14.6857 24.5185 14.5656 24.5052 14.4455C24.4919 14.4455 24.4787 14.4455 24.4653 14.4455C24.4653 14.3926 24.4653 14.339 24.4653 14.2858C24.452 14.2858 24.4387 14.2858 24.4253 14.2858C24.4121 14.192 24.3987 14.0989 24.3855 14.0054C24.3721 14.0054 24.3589 14.0054 24.3455 14.0054C24.3455 13.9654 24.3455 13.9255 24.3455 13.8856C24.3321 13.8856 24.3189 13.8856 24.3056 13.8856C24.3056 13.8321 24.3056 13.7788 24.3056 13.7255C24.2923 13.7255 24.2789 13.7255 24.2656 13.7255C24.2656 13.6853 24.2656 13.6454 24.2656 13.6054C24.2524 13.6054 24.239 13.6054 24.2257 13.6054C24.2257 13.5652 24.2257 13.5253 24.2257 13.4857C24.2124 13.4857 24.1991 13.4857 24.1858 13.4857C24.1858 13.4451 24.1858 13.4055 24.1858 13.3653C24.1724 13.3653 24.1592 13.3653 24.1458 13.3653C24.1458 13.3386 24.1458 13.3117 24.1458 13.2851C24.1326 13.2851 24.1192 13.2851 24.1058 13.2851C24.0926 13.2052 24.0793 13.1254 24.066 13.0455C24.0526 13.0455 24.0394 13.0455 24.026 13.0455C23.9861 12.9251 23.9461 12.8056 23.9063 12.6855C24.736 12.6893 25.8232 12.7793 26.4621 12.5654C26.6351 12.5385 26.8082 12.5119 26.9812 12.4853C26.9812 12.4722 26.9812 12.4586 26.9812 12.4456C27.0211 12.432 27.0611 12.419 27.101 12.4051C27.101 12.3921 27.101 12.3785 27.101 12.3652C27.1788 12.3461 27.1542 12.3886 27.1809 12.4051C27.3181 12.5296 27.3055 12.8131 27.3806 13.0053C27.5584 13.4608 27.633 14.032 27.7799 14.5257C27.7932 14.699 27.8065 14.8724 27.8198 15.0457C27.8331 15.0457 27.8465 15.0457 27.8598 15.0457C27.8598 15.1386 27.8598 15.2323 27.8598 15.3255C27.873 15.3255 27.8864 15.3255 27.8997 15.3255C27.8997 15.4589 27.8997 15.5923 27.8997 15.7258C27.913 15.7258 27.9264 15.7258 27.9396 15.7258C27.9396 15.8991 27.9396 16.0721 27.9396 16.2461C28.0244 16.5542 28.0265 17.458 27.9396 17.7659C27.9396 17.9395 27.9396 18.1126 27.9396 18.2862C27.9264 18.2862 27.913 18.2862 27.8997 18.2862C27.8997 18.419 27.8997 18.5527 27.8997 18.6858C27.8864 18.6858 27.873 18.6858 27.8598 18.6858C27.8598 18.7793 27.8598 18.8728 27.8598 18.966C27.8465 18.966 27.8331 18.966 27.8198 18.966C27.8198 19.0594 27.8198 19.1529 27.8198 19.246C27.7643 19.4344 27.7167 19.7039 27.6601 19.8862C27.6601 19.953 27.6601 20.0193 27.6601 20.0864C27.6467 20.0864 27.6335 20.0864 27.6202 20.0864C27.6202 20.1397 27.6202 20.1932 27.6202 20.2465C27.6069 20.2465 27.5935 20.2465 27.5802 20.2465C27.5802 20.2997 27.5802 20.3526 27.5802 20.4059C27.5669 20.4059 27.5536 20.4059 27.5403 20.4059C27.5403 20.4594 27.5403 20.5127 27.5403 20.5662C27.527 20.5662 27.5137 20.5662 27.5004 20.5662C27.5004 20.6195 27.5004 20.6727 27.5004 20.7262C27.487 20.7262 27.4738 20.7262 27.4604 20.7262C27.4604 20.7795 27.4604 20.833 27.4604 20.8863C27.4472 20.8863 27.4338 20.8863 27.4204 20.8863C27.4204 20.9259 27.4204 20.9664 27.4204 21.0064C27.4072 21.0064 27.3939 21.0064 27.3806 21.0064C27.3806 21.0463 27.3806 21.0865 27.3806 21.1265C27.3672 21.1265 27.354 21.1265 27.3406 21.1265C27.3406 21.1664 27.3406 21.2063 27.3406 21.2465C27.3273 21.2465 27.314 21.2465 27.3007 21.2465C27.2874 21.3397 27.2741 21.4332 27.2607 21.5264C27.2474 21.5264 27.2341 21.5264 27.2208 21.5264C27.2208 21.553 27.2208 21.5796 27.2208 21.6065C27.2075 21.6065 27.1942 21.6065 27.1809 21.6065C27.1543 21.7263 27.1277 21.8464 27.101 21.9665C27.0877 21.9665 27.0744 21.9665 27.0611 21.9665C27.0611 21.9931 27.0611 22.0201 27.0611 22.0467C27.0478 22.0467 27.0345 22.0467 27.0211 22.0467C27.0211 22.0863 27.0211 22.1266 27.0211 22.1665C27.0078 22.1665 26.9945 22.1665 26.9812 22.1665C26.9679 22.233 26.9546 22.2999 26.9412 22.3662C26.928 22.3662 26.9146 22.3662 26.9014 22.3662C26.9014 22.3931 26.9014 22.4197 26.9014 22.4463C26.888 22.4463 26.8747 22.4463 26.8614 22.4463C26.8614 22.4866 26.8614 22.5265 26.8614 22.5667C26.848 22.5667 26.8348 22.5667 26.8214 22.5667C26.7948 22.6466 26.7682 22.7267 26.7416 22.8063C26.7283 22.8063 26.715 22.8063 26.7016 22.8063C26.7016 22.8329 26.7016 22.8596 26.7016 22.8862C26.6883 22.8862 26.6751 22.8862 26.6617 22.8862C26.6617 22.9267 26.6617 22.9666 26.6617 23.0065C26.6484 23.0065 26.6351 23.0065 26.6218 23.0065C26.5951 23.0867 26.5685 23.1663 26.5419 23.2465C26.5286 23.2465 26.5153 23.2465 26.502 23.2465C26.502 23.2731 26.502 23.2997 26.502 23.3266C26.4887 23.3266 26.4753 23.3266 26.4621 23.3266C26.4354 23.4065 26.4088 23.4866 26.3822 23.5665C26.3556 23.5798 26.329 23.5934 26.3023 23.6068C26.3023 23.6334 26.3023 23.66 26.3023 23.6866C26.289 23.6866 26.2757 23.6866 26.2624 23.6866C26.2624 23.7132 26.2624 23.7401 26.2624 23.7668C26.249 23.7668 26.2358 23.7668 26.2224 23.7668C26.2224 23.7934 26.2224 23.82 26.2224 23.8466C26.2091 23.8466 26.1958 23.8466 26.1825 23.8466C26.1825 23.8736 26.1825 23.9002 26.1825 23.9265C26.1559 23.9398 26.1293 23.9531 26.1027 23.9664C26.076 24.0466 26.0494 24.1267 26.0227 24.2066C25.9961 24.2199 25.9695 24.2332 25.9429 24.2468C25.9429 24.2735 25.9429 24.3001 25.9429 24.3264C25.9163 24.34 25.8896 24.3531 25.863 24.3667C25.8497 24.4202 25.8364 24.4734 25.8232 24.5267C25.7964 24.54 25.7698 24.5533 25.7432 24.5666C25.7432 24.5932 25.7432 24.6199 25.7432 24.6468C25.7166 24.6601 25.69 24.6734 25.6634 24.6864C25.6634 24.713 25.6634 24.7397 25.6634 24.7666C25.6367 24.7802 25.6101 24.7932 25.5835 24.8068C25.5835 24.8334 25.5835 24.8601 25.5835 24.8867C25.5702 24.8867 25.5569 24.8867 25.5435 24.8867C25.5303 24.9266 25.5169 24.9668 25.5037 25.0068C25.477 25.0204 25.4503 25.0337 25.4237 25.047C25.4237 25.0736 25.4237 25.1002 25.4237 25.1266C25.3838 25.1538 25.3439 25.1801 25.304 25.2067C25.304 25.2333 25.304 25.26 25.304 25.2869C25.264 25.3135 25.224 25.3401 25.1842 25.3668C25.1842 25.3934 25.1842 25.4203 25.1842 25.4469C25.1442 25.4735 25.1043 25.5001 25.0643 25.5268C25.0643 25.5537 25.0643 25.5803 25.0643 25.6069C25.0111 25.6469 24.9579 25.6871 24.9045 25.7268C24.9045 25.7534 24.9045 25.78 24.9045 25.8069C24.8513 25.8471 24.7981 25.8868 24.7448 25.9267C24.4274 26.3689 24.0814 26.6716 23.7066 27.0472C23.5734 27.1936 23.4403 27.3406 23.3073 27.487C23.2805 27.487 23.2539 27.487 23.2273 27.487C23.1607 27.5672 23.0942 27.6471 23.0276 27.7272C23.001 27.7272 22.9744 27.7272 22.9478 27.7272C22.8946 27.7938 22.8413 27.8606 22.7881 27.9272C22.7615 27.9272 22.7348 27.9272 22.7081 27.9272C22.6683 27.9804 22.6283 28.0337 22.5884 28.0872C22.5618 28.0872 22.5351 28.0872 22.5086 28.0872C22.4818 28.1268 22.4552 28.1671 22.4286 28.207C22.402 28.207 22.3754 28.207 22.3488 28.207C22.3221 28.2472 22.2955 28.2869 22.2689 28.3274C22.2423 28.3274 22.2157 28.3274 22.1891 28.3274C22.1624 28.3671 22.1357 28.407 22.1092 28.4472C22.0825 28.4472 22.0559 28.4472 22.0293 28.4472C22.016 28.4738 22.0026 28.5004 21.9894 28.5271C21.9494 28.5404 21.9094 28.5537 21.8696 28.567C21.8696 28.5806 21.8696 28.5939 21.8696 28.6072C21.8429 28.6072 21.8163 28.6072 21.7897 28.6072C21.7764 28.6339 21.763 28.6605 21.7497 28.6868C21.7231 28.6868 21.6965 28.6868 21.6699 28.6868C21.6565 28.7137 21.6433 28.7403 21.6299 28.767C21.6033 28.767 21.5767 28.767 21.5501 28.767C21.5367 28.7936 21.5234 28.8202 21.5102 28.8471C21.4569 28.8607 21.4036 28.8738 21.3504 28.8874C21.3371 28.914 21.3238 28.9406 21.3104 28.9675C21.2705 28.9808 21.2306 28.9941 21.1907 29.0074C21.1907 29.0207 21.1907 29.0341 21.1907 29.0474C21.1641 29.0474 21.1374 29.0474 21.1108 29.0474C21.1108 29.0607 21.1108 29.074 21.1108 29.0873C21.0841 29.0873 21.0575 29.0873 21.0309 29.0873C21.0309 29.1009 21.0309 29.1142 21.0309 29.1275C21.0043 29.1275 20.9777 29.1275 20.951 29.1275C20.9378 29.1539 20.9244 29.1805 20.9111 29.2071C20.8845 29.2071 20.8578 29.2071 20.8312 29.2071C20.8312 29.2207 20.8312 29.234 20.8312 29.2476C20.8046 29.2476 20.778 29.2476 20.7514 29.2476C20.7514 29.2606 20.7514 29.2742 20.7514 29.2873C20.7248 29.2873 20.6981 29.2873 20.6715 29.2873C20.6715 29.3009 20.6715 29.3139 20.6715 29.3272C20.6449 29.3272 20.6183 29.3272 20.5917 29.3272C20.5783 29.3541 20.5651 29.3807 20.5517 29.4074C20.4719 29.434 20.392 29.4606 20.3121 29.4875C20.3121 29.5009 20.3121 29.5139 20.3121 29.5275C20.2854 29.5275 20.2588 29.5275 20.2322 29.5275C20.2322 29.5405 20.2322 29.5541 20.2322 29.5671C20.1524 29.5937 20.0725 29.6206 19.9927 29.6473C19.9927 29.6609 19.9927 29.6739 19.9927 29.6875C19.9527 29.6875 19.9127 29.6875 19.8728 29.6875C19.8728 29.7005 19.8728 29.7141 19.8728 29.7271C19.8462 29.7271 19.8196 29.7271 19.7929 29.7271C19.7929 29.7407 19.7929 29.7541 19.7929 29.7677C19.713 29.7943 19.6332 29.8209 19.5533 29.8475C19.5533 29.8605 19.5533 29.8741 19.5533 29.8875C19.5134 29.8875 19.4735 29.8875 19.4335 29.8875C19.4335 29.9011 19.4335 29.9141 19.4335 29.9271C19.4069 29.9271 19.3803 29.9271 19.3537 29.9271C19.3537 29.9407 19.3537 29.9537 19.3537 29.9673C19.3138 29.9673 19.2738 29.9673 19.2338 29.9673C19.2338 29.9804 19.2338 29.994 19.2338 30.0073C19.2072 30.0073 19.1806 30.0073 19.154 30.0073C19.154 30.0209 19.154 30.0339 19.154 30.0475C19.114 30.0475 19.0741 30.0475 19.0342 30.0475C19.0342 30.0605 19.0342 30.0741 19.0342 30.0871C19.0075 30.0871 18.9809 30.0871 18.9543 30.0871C18.9543 30.1007 18.9543 30.1137 18.9543 30.1273C18.8345 30.1543 18.7147 30.1809 18.5949 30.2075C18.5949 30.2205 18.5949 30.2341 18.5949 30.2472C18.5682 30.2472 18.5416 30.2472 18.515 30.2472C18.515 30.2608 18.515 30.274 18.515 30.2876C18.4219 30.3007 18.3287 30.3143 18.2355 30.3273C18.2355 30.3406 18.2355 30.354 18.2355 30.3672C18.1956 30.3672 18.1556 30.3672 18.1156 30.3672C18.1156 30.3806 18.1156 30.3939 18.1156 30.4075C18.0758 30.4075 18.0358 30.4075 17.9958 30.4075C17.9958 30.4208 17.9958 30.4341 17.9958 30.4474C17.9559 30.4474 17.916 30.4474 17.8761 30.4474C17.8761 30.4607 17.8761 30.474 17.8761 30.4873C17.8229 30.4873 17.7695 30.4873 17.7163 30.4873C17.7163 30.5007 17.7163 30.514 17.7163 30.5273C17.6631 30.5273 17.6098 30.5273 17.5566 30.5273C17.5566 30.5409 17.5566 30.5542 17.5566 30.5675C17.5034 30.5675 17.4501 30.5675 17.3969 30.5675C17.3969 30.5808 17.3969 30.5941 17.3969 30.6074C17.3436 30.6074 17.2903 30.6074 17.2371 30.6074C17.2371 30.6207 17.2371 30.634 17.2371 30.6474C17.1839 30.6474 17.1306 30.6474 17.0774 30.6474C17.0774 30.6607 17.0774 30.6743 17.0774 30.6876C17.0108 30.6876 16.9442 30.6876 16.8777 30.6876C16.8777 30.7006 16.8777 30.7142 16.8777 30.7272C16.8111 30.7272 16.7445 30.7272 16.6781 30.7272C16.6781 30.7408 16.6781 30.7539 16.6781 30.7675C16.6115 30.7675 16.5449 30.7675 16.4784 30.7675C16.4784 30.7805 16.4784 30.7941 16.4784 30.8074C16.3985 30.8074 16.3186 30.8074 16.2387 30.8074C16.2387 30.821 16.2387 30.834 16.2387 30.8476C16.0524 30.8607 15.866 30.8743 15.6797 30.8873C15.6797 30.9009 15.6797 30.9142 15.6797 30.9275C15.1472 30.9544 14.6147 30.981 14.0823 31.0076C13.6164 30.9943 13.1504 30.981 12.6846 30.9677C12.6846 30.9544 12.6846 30.9408 12.6846 30.9275C12.5648 30.9275 12.4449 30.9275 12.3251 30.9275C12.3251 30.9142 12.3251 30.9009 12.3251 30.8873C12.2187 30.8873 12.1122 30.8873 12.0056 30.8873C11.38 30.7539 10.7543 30.6207 10.1287 30.4873C9.1777 30.1453 8.20507 29.8264 7.4131 29.3272C7.38652 29.3272 7.35989 29.3272 7.33331 29.3272C7.33331 29.3139 7.33331 29.3009 7.33331 29.2873C7.30668 29.2873 7.27999 29.2873 7.25337 29.2873C7.25337 29.2742 7.25337 29.2606 7.25337 29.2476C7.22678 29.2476 7.20016 29.2476 7.17357 29.2476C7.17357 29.234 7.17357 29.2207 7.17357 29.2071C7.14695 29.2071 7.12026 29.2071 7.09364 29.2071C7.08038 29.1805 7.06702 29.1539 7.05379 29.1275C6.97386 29.1009 6.89392 29.074 6.81413 29.0474C6.81413 29.0341 6.81413 29.0207 6.81413 29.0074C6.77414 28.9941 6.73429 28.9808 6.69434 28.9675C6.68098 28.9406 6.66772 28.914 6.65436 28.8874C6.60115 28.8738 6.54784 28.8607 6.49463 28.8471C6.49463 28.8341 6.49463 28.8202 6.49463 28.8072C6.45468 28.7936 6.41483 28.7806 6.37485 28.767C6.36152 28.7403 6.34826 28.7137 6.3349 28.6868C6.30827 28.6868 6.28169 28.6868 6.25506 28.6868C6.24174 28.6605 6.22837 28.6339 6.21511 28.6072C6.18849 28.6072 6.1619 28.6072 6.13518 28.6072C6.13518 28.5939 6.13518 28.5806 6.13518 28.567C6.09533 28.5537 6.05538 28.5404 6.01543 28.5271C6.00217 28.5004 5.98881 28.4738 5.97545 28.4472C5.94886 28.4472 5.92224 28.4472 5.89565 28.4472C5.86903 28.407 5.84241 28.3671 5.81572 28.3274C5.78909 28.3274 5.76251 28.3274 5.73588 28.3274C5.7093 28.2869 5.68267 28.2472 5.65598 28.207C5.62936 28.207 5.60277 28.207 5.57615 28.207C5.54953 28.1671 5.52294 28.1268 5.49622 28.0872C5.46963 28.0872 5.44301 28.0872 5.41642 28.0872C5.37647 28.0337 5.33649 27.9804 5.29664 27.9272C5.27002 27.9272 5.24333 27.9272 5.2167 27.9272C5.19012 27.8873 5.16349 27.847 5.13691 27.8074C5.12354 27.8074 5.11028 27.8074 5.09692 27.8074C5.08359 27.7805 5.07033 27.7538 5.05697 27.7272C5.03035 27.7272 5.00376 27.7272 4.97714 27.7272C4.91057 27.6471 4.84403 27.5672 4.77746 27.487C4.75084 27.487 4.72425 27.487 4.69763 27.487C4.53789 27.314 4.37806 27.1406 4.2184 26.967C3.99209 26.7535 3.76579 26.5402 3.53948 26.3269C3.53948 26.3003 3.53948 26.2737 3.53948 26.2471C3.45958 26.1802 3.37975 26.1136 3.29982 26.0468C3.29982 26.0202 3.29982 25.9936 3.29982 25.9669C3.23335 25.9134 3.16671 25.8601 3.10024 25.8069C3.10024 25.78 3.10024 25.7534 3.10024 25.7268C3.04693 25.6871 2.99368 25.6469 2.94047 25.6069C2.94047 25.5803 2.94047 25.5537 2.94047 25.5268C2.90052 25.5001 2.86057 25.4735 2.82062 25.4469C2.82062 25.4203 2.82062 25.3934 2.82062 25.3668C2.78074 25.3401 2.74079 25.3135 2.70084 25.2869C2.70084 25.26 2.70084 25.2333 2.70084 25.2067C2.66086 25.1801 2.62101 25.1538 2.58106 25.1266C2.58106 25.1002 2.58106 25.0736 2.58106 25.047C2.55444 25.0337 2.52781 25.0204 2.50112 25.0068C2.48786 24.9668 2.4745 24.9266 2.46128 24.8867C2.44791 24.8867 2.43465 24.8867 2.42129 24.8867C2.42129 24.8601 2.42129 24.8334 2.42129 24.8068C2.3947 24.7932 2.36808 24.7802 2.34139 24.7666C2.34139 24.7397 2.34139 24.713 2.34139 24.6864C2.31477 24.6734 2.28818 24.6601 2.26156 24.6468C2.26156 24.6199 2.26156 24.5932 2.26156 24.5666C2.23494 24.5533 2.20835 24.54 2.18166 24.5267C2.1684 24.4734 2.15504 24.4202 2.14178 24.3667C2.11519 24.3531 2.08847 24.34 2.06188 24.3264C2.04862 24.2868 2.03526 24.2468 2.02189 24.2066C2.00863 24.2066 1.99531 24.2066 1.98205 24.2066C1.95542 24.1267 1.92873 24.0466 1.90211 23.9664C1.87552 23.9531 1.8489 23.9398 1.82231 23.9265C1.82231 23.9002 1.82231 23.8736 1.82231 23.8466C1.80895 23.8466 1.79569 23.8466 1.78233 23.8466C1.78233 23.82 1.78233 23.7934 1.78233 23.7668C1.769 23.7668 1.75574 23.7668 1.74238 23.7668C1.74238 23.7401 1.74238 23.7132 1.74238 23.6866C1.72912 23.6866 1.71576 23.6866 1.70243 23.6866C1.70243 23.66 1.70243 23.6334 1.70243 23.6068C1.20586 22.8138 0.882554 21.8395 0.54439 20.8863C0.531028 20.7795 0.517768 20.6727 0.504406 20.5662C0.491146 20.5662 0.477818 20.5662 0.464456 20.5662C0.464456 20.5127 0.464456 20.4594 0.464456 20.4059C0.451196 20.4059 0.437834 20.4059 0.424608 20.4059C0.424608 20.3526 0.424608 20.2997 0.424608 20.2465C0.411246 20.2465 0.397884 20.2465 0.384624 20.2465C0.384624 20.1932 0.384624 20.1397 0.384624 20.0864C0.371296 20.0864 0.358036 20.0864 0.344674 20.0864C0.344674 20.0193 0.344674 19.953 0.344674 19.8862C0.331414 19.8862 0.318086 19.8862 0.304724 19.8862C0.291464 19.7528 0.278102 19.6194 0.264842 19.486C0.251514 19.486 0.238152 19.486 0.224892 19.486C0.224892 19.4061 0.224892 19.3259 0.224892 19.246C0.21153 19.246 0.198304 19.246 0.184942 19.246C0.184942 19.1529 0.184942 19.0594 0.184942 18.966C0.171682 18.966 0.15832 18.966 0.144992 18.966C0.131732 18.7393 0.11837 18.5128 0.10511 18.2862C0.091748 18.2862 0.0784199 18.2862 0.06516 18.2862C0.06516 18.1126 0.06516 17.9395 0.06516 17.7659C-0.019738 17.4574 -0.0217099 16.5537 0.06516 16.2461C0.06516 16.0721 0.06516 15.8991 0.06516 15.7258C0.0784199 15.7258 0.091748 15.7258 0.10511 15.7258C0.11837 15.4991 0.131732 15.272 0.144992 15.0457C0.15832 15.0457 0.171682 15.0457 0.184942 15.0457C0.184942 14.9525 0.184942 14.8588 0.184942 14.7656C0.24043 14.5775 0.28803 14.3078 0.344674 14.1257C0.344674 14.0586 0.344674 13.9924 0.344674 13.9255C0.358036 13.9255 0.371296 13.9255 0.384624 13.9255C0.384624 13.8723 0.384624 13.8187 0.384624 13.7655C0.397884 13.7655 0.411246 13.7655 0.424608 13.7655C0.424608 13.7122 0.424608 13.6587 0.424608 13.6054C0.437834 13.6054 0.451196 13.6054 0.464456 13.6054C0.464456 13.5519 0.464456 13.4987 0.464456 13.4451C0.477818 13.4451 0.491146 13.4451 0.504406 13.4451C0.504406 13.3919 0.504406 13.3386 0.504406 13.2851C0.517768 13.2851 0.531028 13.2851 0.54439 13.2851C0.54439 13.2319 0.54439 13.1783 0.54439 13.1254C0.557616 13.1254 0.570978 13.1254 0.58434 13.1254C0.58434 13.0855 0.58434 13.0452 0.58434 13.0053C0.5976 13.0053 0.610928 13.0053 0.624188 13.0053C0.624188 12.9656 0.624188 12.9251 0.624188 12.8855C0.63755 12.8855 0.650912 12.8855 0.664172 12.8855C0.664172 12.8452 0.664172 12.8056 0.664172 12.7651C0.6775 12.7651 0.69076 12.7651 0.704122 12.7651C0.704122 12.7121 0.704122 12.6586 0.704122 12.6054C0.717382 12.6054 0.73071 12.6054 0.744072 12.6054C0.744072 12.5654 0.744072 12.5252 0.744072 12.4853C0.757332 12.4853 0.770694 12.4853 0.783954 12.4853C0.783954 12.4586 0.783954 12.432 0.783954 12.4051C0.797282 12.4051 0.810542 12.4051 0.823904 12.4051C0.850492 12.2853 0.877114 12.1655 0.903804 12.0451C0.917064 12.0451 0.930426 12.0451 0.943686 12.0451C0.943686 12.0185 0.943686 11.9916 0.943686 11.9649C0.957048 11.9649 0.970274 11.9649 0.983636 11.9649C0.983636 11.9253 0.983636 11.8854 0.983636 11.8452C0.996998 11.8452 1.01026 11.8452 1.02359 11.8452C1.02359 11.8185 1.02359 11.7919 1.02359 11.7653C1.03685 11.7653 1.05021 11.7653 1.06357 11.7653C1.06357 11.7251 1.06357 11.6851 1.06357 11.6452C1.0768 11.6452 1.09016 11.6452 1.10342 11.6452C1.10342 11.6186 1.10342 11.5917 1.10342 11.565C1.11678 11.565 1.13004 11.565 1.14337 11.565C1.14337 11.5254 1.14337 11.4852 1.14337 11.4452C1.15673 11.4452 1.16999 11.4452 1.18335 11.4452C1.20994 11.3654 1.23656 11.2852 1.26315 11.205C1.27651 11.205 1.28977 11.205 1.30313 11.205C1.30313 11.1784 1.30313 11.1518 1.30313 11.1252C1.31646 11.1252 1.32972 11.1252 1.34308 11.1252C1.34308 11.0852 1.34308 11.045 1.34308 11.0054C1.35634 11.0054 1.36967 11.0054 1.38303 11.0054C1.40966 10.9252 1.43624 10.8453 1.46287 10.7652C1.47623 10.7652 1.48945 10.7652 1.50282 10.7652C1.50282 10.7386 1.50282 10.7119 1.50282 10.685C1.51608 10.685 1.52944 10.685 1.54277 10.685C1.56939 10.6052 1.59601 10.525 1.6226 10.4451C1.64922 10.4318 1.67581 10.4182 1.70243 10.4052C1.70243 10.3783 1.70243 10.3516 1.70243 10.325C1.71576 10.325 1.72912 10.325 1.74238 10.325C1.74238 10.2984 1.74238 10.2715 1.74238 10.2449C1.75574 10.2449 1.769 10.2449 1.78233 10.2449C1.78233 10.2183 1.78233 10.1916 1.78233 10.165C1.79569 10.165 1.80895 10.165 1.82231 10.165C1.82231 10.1381 1.82231 10.1115 1.82231 10.0849C1.8489 10.0718 1.87552 10.0582 1.90211 10.0452C1.92873 9.96503 1.95542 9.8849 1.98205 9.80503C1.99531 9.80503 2.00863 9.80503 2.02189 9.80503C2.03526 9.76508 2.04862 9.72486 2.06188 9.68494C2.08847 9.67161 2.11519 9.65832 2.14178 9.64499C2.15504 9.59144 2.1684 9.5385 2.18166 9.48495C2.19499 9.48495 2.20835 9.48495 2.22161 9.48495C2.23494 9.44504 2.2482 9.40509 2.26156 9.36487C2.28818 9.35157 2.31477 9.33824 2.34139 9.32495C2.34139 9.29833 2.34139 9.27171 2.34139 9.24478C2.35472 9.24478 2.36808 9.24478 2.38134 9.24478C2.3947 9.20486 2.40796 9.16491 2.42129 9.12527C2.44791 9.11136 2.4745 9.09834 2.50112 9.08474C2.50112 9.05812 2.50112 9.0315 2.50112 9.00487C2.54107 8.97798 2.58106 8.95136 2.62101 8.92474C2.62101 8.89811 2.62101 8.87149 2.62101 8.84487C2.6476 8.83154 2.67422 8.81852 2.70084 8.80492C2.70084 8.7783 2.70084 8.75168 2.70084 8.72475C2.74079 8.69813 2.78074 8.6715 2.82062 8.64488C2.82062 8.61826 2.82062 8.59137 2.82062 8.56474C2.86057 8.53812 2.90052 8.5115 2.94047 8.48488C2.94047 8.45795 2.94047 8.43133 2.94047 8.40471C2.99368 8.36479 3.04693 8.32484 3.10024 8.28462C3.10024 8.258 3.10024 8.23137 3.10024 8.20475C3.14009 8.17782 3.18004 8.1512 3.22002 8.12458C3.22002 8.11156 3.22002 8.09796 3.22002 8.08494C3.24661 8.07134 3.27323 8.05804 3.29982 8.04444C3.29982 8.01782 3.29982 7.9912 3.29982 7.96485C3.37975 7.898 3.45958 7.83143 3.53948 7.76459C3.53948 7.73797 3.53948 7.71134 3.53948 7.68472C3.7391 7.4981 3.93888 7.31144 4.1385 7.1245C4.32485 6.92482 4.51127 6.72487 4.69763 6.52461C4.72425 6.52461 4.75084 6.52461 4.77746 6.52461C4.84403 6.44444 4.91057 6.36488 4.97714 6.2847C5.00376 6.2847 5.03035 6.2847 5.05697 6.2847C5.11028 6.21786 5.16349 6.15129 5.2167 6.08444C5.24333 6.08444 5.27002 6.08444 5.29664 6.08444C5.33649 6.03093 5.37647 5.97796 5.41642 5.92444C5.44301 5.92444 5.46963 5.92444 5.49622 5.92444C5.52294 5.88449 5.54953 5.84457 5.57615 5.80435C5.60277 5.80435 5.62936 5.80435 5.65598 5.80435C5.68267 5.76467 5.7093 5.72445 5.73588 5.68454C5.76251 5.68454 5.78909 5.68454 5.81572 5.68454C5.82908 5.65791 5.84241 5.63129 5.85567 5.60467C5.88229 5.60467 5.90898 5.60467 5.9356 5.60467C5.96219 5.56472 5.98881 5.5245 6.01543 5.48458C6.04202 5.48458 6.06871 5.48458 6.09533 5.48458C6.10859 5.45796 6.12195 5.43103 6.13518 5.40441C6.1619 5.40441 6.18849 5.40441 6.21511 5.40441C6.22837 5.37779 6.24174 5.35117 6.25506 5.32454C6.28169 5.32454 6.30827 5.32454 6.3349 5.32454C6.34826 5.29762 6.36152 5.27099 6.37485 5.24468C6.40147 5.24468 6.42806 5.24468 6.45468 5.24468C6.46804 5.21806 6.48137 5.19143 6.49463 5.16451C6.54784 5.15121 6.60115 5.13788 6.65436 5.12459C6.66772 5.09797 6.68098 5.07135 6.69434 5.04472C6.73429 5.03112 6.77414 5.0178 6.81413 5.0045C6.81413 4.99117 6.81413 4.97788 6.81413 4.96455C6.84071 4.96455 6.86734 4.96455 6.89403 4.96455C6.89403 4.95126 6.89403 4.93793 6.89403 4.9246C6.92065 4.9246 6.94724 4.9246 6.97386 4.9246C6.97386 4.911 6.97386 4.89771 6.97386 4.88438C7.00048 4.88438 7.02707 4.88438 7.05379 4.88438C7.06702 4.85776 7.08038 4.83114 7.09364 4.80451C7.12026 4.80451 7.14695 4.80451 7.17357 4.80451C7.17357 4.79149 7.17357 4.77762 7.17357 4.7646C7.20016 4.7646 7.22678 4.7646 7.25337 4.7646C7.25337 4.751 7.25337 4.73798 7.25337 4.72438C7.27999 4.72438 7.30668 4.72438 7.33331 4.72438C7.33331 4.71135 7.33331 4.69775 7.33331 4.68473C7.35989 4.68473 7.38652 4.68473 7.4131 4.68473C7.42647 4.65811 7.43973 4.63118 7.45309 4.60456C7.47968 4.60456 7.5063 4.60456 7.53299 4.60456C7.53299 4.59096 7.53299 4.57794 7.53299 4.56434C7.61282 4.53772 7.69275 4.51079 7.77255 4.48417C7.77255 4.47114 7.77255 4.45754 7.77255 4.44452C7.85238 4.41763 7.93228 4.39101 8.01212 4.36408C8.01212 4.35106 8.01212 4.33746 8.01212 4.32443C8.05207 4.32443 8.09205 4.32443 8.132 4.32443C8.132 4.31083 8.132 4.29781 8.132 4.28421C8.15862 4.28421 8.18521 4.28421 8.21183 4.28421C8.21183 4.27119 8.21183 4.25759 8.21183 4.2443C8.29173 4.21767 8.37156 4.19105 8.45146 4.16443C8.45146 4.15083 8.45146 4.13781 8.45146 4.12421C8.49135 4.12421 8.5313 4.12421 8.57125 4.12421C8.57125 4.11088 8.57125 4.09728 8.57125 4.08426C8.59787 4.08426 8.62449 4.08426 8.65108 4.08426C8.65108 4.07066 8.65108 4.05764 8.65108 4.04431C8.69103 4.04431 8.73101 4.04431 8.77096 4.04431C8.77096 4.03101 8.77096 4.01799 8.77096 4.00439C8.79758 4.00439 8.82417 4.00439 8.85079 4.00439C8.85079 3.99106 8.85079 3.97746 8.85079 3.96444C8.89074 3.96444 8.93069 3.96444 8.97058 3.96444C8.97058 3.95084 8.97058 3.93782 8.97058 3.92422C8.99727 3.92422 9.02389 3.92422 9.05048 3.92422C9.05048 3.9112 9.05048 3.8976 9.05048 3.88458C9.17026 3.85768 9.29014 3.83106 9.40992 3.80444C9.40992 3.79084 9.40992 3.77782 9.40992 3.76422C9.43655 3.76422 9.46313 3.76422 9.48976 3.76422C9.48976 3.75119 9.48976 3.73759 9.48976 3.72427C9.58292 3.71067 9.67611 3.69764 9.76927 3.68404C9.76927 3.67102 9.76927 3.65742 9.76927 3.6444C9.80922 3.6444 9.84917 3.6444 9.88915 3.6444C9.88915 3.6308 9.88915 3.61778 9.88915 3.60445C9.929 3.60445 9.96895 3.60445 10.0089 3.60445C10.0089 3.59085 10.0089 3.57725 10.0089 3.56423C10.0489 3.56423 10.0887 3.56423 10.1287 3.56423C10.1287 3.55093 10.1287 3.53761 10.1287 3.52431C10.2352 3.51098 10.3418 3.49769 10.4482 3.48436C10.4482 3.47107 10.4482 3.45747 10.4482 3.44414C10.5014 3.44414 10.5547 3.44414 10.6079 3.44414C10.6079 3.43085 10.6079 3.41782 10.6079 3.40422C10.6612 3.40422 10.7145 3.40422 10.7677 3.40422C10.7677 3.3912 10.7677 3.3776 10.7677 3.36458C10.8209 3.36458 10.8742 3.36458 10.9274 3.36458C10.9274 3.35098 10.9274 3.33765 10.9274 3.32405C10.994 3.32405 11.0606 3.32405 11.1271 3.32405C11.1271 3.31103 11.1271 3.29743 11.1271 3.28441C11.2601 3.27081 11.3934 3.25779 11.5264 3.24419C11.5264 3.23116 11.5264 3.21784 11.5264 3.20424C11.6063 3.20424 11.6862 3.20424 11.7661 3.20424C11.7661 3.19094 11.7661 3.17761 11.7661 3.16432C11.8593 3.16432 11.9524 3.16432 12.0456 3.16432C12.0456 3.15099 12.0456 3.1377 12.0456 3.12437C12.1388 3.12437 12.232 3.12437 12.3251 3.12437C12.3251 3.11108 12.3251 3.09775 12.3251 3.08445C12.4449 3.08445 12.5648 3.08445 12.6846 3.08445C12.6846 3.07085 12.6846 3.05753 12.6846 3.04423C12.8709 3.04423 13.0572 3.04423 13.2436 3.04423C13.5514 2.95886 14.4538 2.9574 14.7612 3.04423C14.9475 3.04423 15.1339 3.04423 15.3202 3.04423C15.3202 3.05753 15.3202 3.07085 15.3202 3.08445C15.44 3.08445 15.5599 3.08445 15.6797 3.08445C15.6797 3.09775 15.6797 3.11108 15.6797 3.12437C15.7729 3.12437 15.866 3.12437 15.9592 3.12437C15.9592 3.1377 15.9592 3.15099 15.9592 3.16432C16.0524 3.16432 16.1455 3.16432 16.2387 3.16432C16.2387 3.17761 16.2387 3.19094 16.2387 3.20424C16.3852 3.21784 16.5316 3.23116 16.6781 3.24419C16.6781 3.25779 16.6781 3.27081 16.6781 3.28441C16.8111 3.29743 16.9442 3.31103 17.0774 3.32405C17.0774 3.33765 17.0774 3.35098 17.0774 3.36458C17.1839 3.3776 17.2903 3.3912 17.3969 3.40422C17.3969 3.41782 17.3969 3.43085 17.3969 3.44414C17.4501 3.44414 17.5034 3.44414 17.5566 3.44414C17.5566 3.45747 17.5566 3.47107 17.5566 3.48436C17.6098 3.48436 17.6631 3.48436 17.7163 3.48436C17.7163 3.49769 17.7163 3.51098 17.7163 3.52431C17.7695 3.52431 17.8229 3.52431 17.8761 3.52431C17.8761 3.53761 17.8761 3.55093 17.8761 3.56423C17.916 3.56423 17.9559 3.56423 17.9958 3.56423C17.9958 3.57725 17.9958 3.59085 17.9958 3.60445C18.0358 3.60445 18.0758 3.60445 18.1156 3.60445C18.1156 3.61778 18.1156 3.6308 18.1156 3.6444C18.1556 3.6444 18.1956 3.6444 18.2355 3.6444C18.2355 3.65742 18.2355 3.67102 18.2355 3.68404C18.2887 3.68404 18.3419 3.68404 18.3952 3.68404C18.3952 3.69764 18.3952 3.71067 18.3952 3.72427C18.4351 3.72427 18.4751 3.72427 18.515 3.72427C18.515 3.73759 18.515 3.75119 18.515 3.76422C18.5816 3.77782 18.6482 3.79084 18.7147 3.80444C18.7147 3.81746 18.7147 3.83106 18.7147 3.84408C18.6724 3.87244 18.5312 4.04315 18.515 4.08426C18.515 4.15083 18.515 4.21767 18.515 4.28421C18.5017 4.28421 18.4884 4.28421 18.4751 4.28421C18.4751 4.33746 18.4751 4.39101 18.4751 4.44452C18.4618 4.44452 18.4485 4.44452 18.4351 4.44452C18.4351 4.49777 18.4351 4.55132 18.4351 4.60456C18.4219 4.60456 18.4085 4.60456 18.3952 4.60456C18.3952 4.65811 18.3952 4.71135 18.3952 4.7646C18.3819 4.7646 18.3685 4.7646 18.3553 4.7646C18.3553 4.81811 18.3553 4.87109 18.3553 4.9246C18.3419 4.9246 18.3287 4.9246 18.3153 4.9246C18.3153 5.64431 18.3153 6.36488 18.3153 7.08486ZM21.7497 13.7255C21.7897 13.859 21.8296 13.9924 21.8696 14.1257C21.8828 14.1257 21.8962 14.1257 21.9094 14.1257C21.9094 14.1654 21.9094 14.2056 21.9094 14.2456C21.9228 14.2456 21.9361 14.2456 21.9494 14.2456C21.9494 14.2858 21.9494 14.3254 21.9494 14.3654C21.9628 14.3654 21.976 14.3654 21.9894 14.3654C21.9894 14.4056 21.9894 14.4455 21.9894 14.4855C22.0026 14.4855 22.016 14.4855 22.0293 14.4855C22.0426 14.5789 22.0559 14.6724 22.0692 14.7656C22.0825 14.7656 22.0959 14.7656 22.1092 14.7656C22.1891 15.1791 22.2689 15.5923 22.3488 16.0059C22.3488 16.1523 22.3488 16.2993 22.3488 16.4457C22.3621 16.4457 22.3754 16.4457 22.3887 16.4457C22.3887 16.6457 22.3887 16.8456 22.3887 17.0459C22.3887 17.5723 22.3535 18.1149 22.2289 18.5258C22.2157 18.6592 22.2023 18.7926 22.1891 18.926C22.1757 18.926 22.1624 18.926 22.1491 18.926C22.1357 19.0328 22.1225 19.1396 22.1092 19.246C22.0959 19.246 22.0825 19.246 22.0692 19.246C22.0559 19.3395 22.0426 19.4327 22.0293 19.5265C22.016 19.5265 22.0026 19.5265 21.9894 19.5265C21.9894 19.5661 21.9894 19.606 21.9894 19.6463C21.976 19.6463 21.9628 19.6463 21.9494 19.6463C21.9494 19.6862 21.9494 19.7261 21.9494 19.7661C21.9361 19.7661 21.9228 19.7661 21.9094 19.7661C21.9094 19.8063 21.9094 19.8463 21.9094 19.8862C21.8962 19.8862 21.8828 19.8862 21.8696 19.8862C21.8696 19.9131 21.8696 19.9397 21.8696 19.966C21.8562 19.966 21.8429 19.966 21.8296 19.966C21.8296 20.0063 21.8296 20.0462 21.8296 20.0864C21.8163 20.0864 21.803 20.0864 21.7897 20.0864C21.7897 20.113 21.7897 20.1397 21.7897 20.1663C21.7764 20.1663 21.763 20.1663 21.7497 20.1663C21.7497 20.2062 21.7497 20.2465 21.7497 20.2861C21.7365 20.2861 21.7231 20.2861 21.7098 20.2861C21.6965 20.3396 21.6831 20.3929 21.6699 20.4464C21.6565 20.4464 21.6433 20.4464 21.6299 20.4464C21.6299 20.473 21.6299 20.4997 21.6299 20.5263C21.6167 20.5263 21.6033 20.5263 21.59 20.5263C21.59 20.5662 21.59 20.6065 21.59 20.6461C21.5767 20.6461 21.5634 20.6461 21.5501 20.6461C21.5367 20.6996 21.5234 20.7529 21.5102 20.8061C21.4968 20.8061 21.4835 20.8061 21.4702 20.8061C21.4569 20.8597 21.4436 20.9129 21.4302 20.9664C21.4036 20.9797 21.377 20.993 21.3504 21.0064C21.3238 21.0865 21.2972 21.1664 21.2705 21.2465C21.2439 21.2596 21.2173 21.2732 21.1907 21.2862C21.1773 21.3397 21.1641 21.393 21.1507 21.4462C21.1374 21.4462 21.1241 21.4462 21.1108 21.4462C21.0975 21.4867 21.0841 21.5264 21.0709 21.5663C21.0443 21.5796 21.0176 21.5929 20.991 21.6065C20.991 21.6332 20.991 21.6598 20.991 21.6864C20.9777 21.6864 20.9643 21.6864 20.951 21.6864C20.9378 21.7263 20.9244 21.7666 20.9111 21.8065C20.8845 21.8198 20.8578 21.8331 20.8312 21.8464C20.8312 21.8734 20.8312 21.9 20.8312 21.9266C20.7914 21.9529 20.7514 21.9795 20.7115 22.0065C20.7115 22.0331 20.7115 22.0597 20.7115 22.0863C20.6715 22.113 20.6315 22.1399 20.5917 22.1665C20.5917 22.1931 20.5917 22.2197 20.5917 22.2463C20.5251 22.2999 20.4585 22.3531 20.392 22.4067C20.392 22.4333 20.392 22.4599 20.392 22.4866C20.2588 22.6063 20.1257 22.7267 19.9927 22.8465C19.8196 23.0332 19.6465 23.2198 19.4735 23.4065C19.4469 23.4065 19.4202 23.4065 19.3935 23.4065C19.3403 23.4736 19.2871 23.5399 19.2338 23.6068C19.2072 23.6068 19.1806 23.6068 19.154 23.6068C19.1274 23.6467 19.1007 23.6866 19.0741 23.7268C19.0475 23.7268 19.0209 23.7268 18.9943 23.7268C18.9677 23.7668 18.941 23.8067 18.9144 23.8466C18.8877 23.8466 18.8611 23.8466 18.8345 23.8466C18.8212 23.8736 18.8079 23.9002 18.7946 23.9265C18.7546 23.9398 18.7147 23.9531 18.6748 23.9664C18.6748 23.98 18.6748 23.9934 18.6748 24.0067C18.6482 24.0067 18.6215 24.0067 18.5949 24.0067C18.5816 24.0333 18.5682 24.0599 18.555 24.0865C18.515 24.0999 18.4751 24.1135 18.4351 24.1267C18.4351 24.1401 18.4351 24.1534 18.4351 24.1667C18.3819 24.18 18.3287 24.1933 18.2754 24.2066C18.2621 24.2332 18.2488 24.2602 18.2355 24.2868C18.1556 24.3134 18.0758 24.34 17.9958 24.3667C17.9826 24.3936 17.9693 24.4202 17.9559 24.4468C17.9027 24.4598 17.8495 24.4734 17.7962 24.4865C17.7962 24.5001 17.7962 24.5134 17.7962 24.5267C17.743 24.54 17.6897 24.5533 17.6364 24.5666C17.6364 24.5799 17.6364 24.5932 17.6364 24.6066C17.5965 24.6066 17.5566 24.6066 17.5166 24.6066C17.5166 24.6199 17.5166 24.6334 17.5166 24.6468C17.49 24.6468 17.4634 24.6468 17.4368 24.6468C17.4368 24.6601 17.4368 24.6734 17.4368 24.6864C17.3835 24.7 17.3303 24.713 17.2771 24.7266C17.2771 24.7397 17.2771 24.7533 17.2771 24.7666C17.2371 24.7666 17.1971 24.7666 17.1573 24.7666C17.1573 24.7802 17.1573 24.7932 17.1573 24.8068C17.1306 24.8068 17.104 24.8068 17.0774 24.8068C17.0774 24.8198 17.0774 24.8334 17.0774 24.8465C17.0108 24.8601 16.9442 24.8731 16.8777 24.8867C16.8777 24.9 16.8777 24.9136 16.8777 24.9266C16.8378 24.9266 16.7979 24.9266 16.7579 24.9266C16.7579 24.9402 16.7579 24.9535 16.7579 24.9668C16.7179 24.9668 16.6781 24.9668 16.6381 24.9668C16.6381 24.9801 16.6381 24.9934 16.6381 25.0068C16.5981 25.0068 16.5582 25.0068 16.5183 25.0068C16.5183 25.0204 16.5183 25.0337 16.5183 25.047C16.4251 25.0603 16.3319 25.0736 16.2387 25.0869C16.2387 25.1002 16.2387 25.1135 16.2387 25.1266C16.1323 25.1402 16.0257 25.1538 15.9192 25.1671C15.9192 25.1801 15.9192 25.1937 15.9192 25.2067C15.8528 25.2067 15.7861 25.2067 15.7196 25.2067C15.7196 25.2203 15.7196 25.2333 15.7196 25.2469C15.6531 25.2469 15.5865 25.2469 15.5199 25.2469C15.5199 25.26 15.5199 25.2736 15.5199 25.2869C15.44 25.2869 15.3602 25.2869 15.2803 25.2869C15.2803 25.3005 15.2803 25.3135 15.2803 25.3271C15.1871 25.3271 15.0939 25.3271 15.0007 25.3271C15.0007 25.3401 15.0007 25.3537 15.0007 25.3668C14.8543 25.3668 14.7079 25.3668 14.5615 25.3668C14.1253 25.4886 13.0949 25.3951 12.7245 25.2869C12.6446 25.2869 12.5648 25.2869 12.4848 25.2869C12.0323 25.1671 11.5796 25.047 11.1271 24.9266C11.1271 24.9136 11.1271 24.9 11.1271 24.8867C11.1005 24.8867 11.0738 24.8867 11.0472 24.8867C11.0472 24.8731 11.0472 24.8601 11.0472 24.8465C11.0073 24.8465 10.9674 24.8465 10.9274 24.8465C10.9274 24.8334 10.9274 24.8198 10.9274 24.8068C10.9008 24.8068 10.8742 24.8068 10.8476 24.8068C10.8476 24.7932 10.8476 24.7802 10.8476 24.7666C10.8076 24.7666 10.7677 24.7666 10.7277 24.7666C10.7277 24.7533 10.7277 24.7397 10.7277 24.7266C10.6745 24.713 10.6213 24.7 10.568 24.6864C10.568 24.6734 10.568 24.6601 10.568 24.6468C10.5414 24.6468 10.5148 24.6468 10.4881 24.6468C10.4881 24.6334 10.4881 24.6199 10.4881 24.6066C10.3684 24.5666 10.2485 24.5267 10.1287 24.4865C10.1155 24.4598 10.1021 24.4332 10.0887 24.4066C10.0621 24.4066 10.0355 24.4066 10.0089 24.4066C10.0089 24.3936 10.0089 24.3799 10.0089 24.3667C9.98231 24.3667 9.95562 24.3667 9.929 24.3667C9.929 24.3531 9.929 24.34 9.929 24.3264C9.90241 24.3264 9.87579 24.3264 9.84917 24.3264C9.84917 24.3134 9.84917 24.3001 9.84917 24.2868C9.82258 24.2868 9.79589 24.2868 9.76927 24.2868C9.75601 24.2602 9.74265 24.2332 9.72939 24.2066C9.67611 24.1933 9.62287 24.18 9.56966 24.1667C9.55633 24.1401 9.54297 24.1135 9.52971 24.0865C9.50308 24.0865 9.4765 24.0865 9.44977 24.0865C9.43655 24.0599 9.42318 24.0333 9.40992 24.0067C9.38323 24.0067 9.35661 24.0067 9.32999 24.0067C9.32999 23.9934 9.32999 23.98 9.32999 23.9664C9.29004 23.9531 9.25019 23.9398 9.21021 23.9265C9.19688 23.9002 9.18362 23.8736 9.17026 23.8466C9.14367 23.8466 9.11705 23.8466 9.09043 23.8466C9.06384 23.8067 9.03715 23.7668 9.01053 23.7268C8.9839 23.7268 8.95732 23.7268 8.93069 23.7268C8.90411 23.6866 8.87738 23.6467 8.85079 23.6068C8.82417 23.6068 8.79758 23.6068 8.77096 23.6068C8.71765 23.5399 8.66444 23.4736 8.61123 23.4065C8.58461 23.4065 8.55792 23.4065 8.5313 23.4065C8.30509 23.1663 8.07869 22.9267 7.85249 22.6865C7.77255 22.6199 7.69265 22.5531 7.61282 22.4866C7.61282 22.4599 7.61282 22.4333 7.61282 22.4067C7.54625 22.3531 7.47968 22.2999 7.4131 22.2463C7.4131 22.2197 7.4131 22.1931 7.4131 22.1665C7.37326 22.1399 7.33331 22.113 7.29332 22.0863C7.29332 22.0597 7.29332 22.0331 7.29332 22.0065C7.25337 21.9795 7.21352 21.9529 7.17357 21.9266C7.17357 21.9 7.17357 21.8734 7.17357 21.8464C7.14695 21.8331 7.12026 21.8198 7.09364 21.8065C7.09364 21.7799 7.09364 21.7532 7.09364 21.7263C7.06702 21.713 7.04043 21.6997 7.01381 21.6864C7.01381 21.6598 7.01381 21.6332 7.01381 21.6065C6.98722 21.5929 6.9605 21.5796 6.93391 21.5663C6.93391 21.54 6.93391 21.5134 6.93391 21.4867C6.90729 21.4732 6.8807 21.4598 6.85408 21.4462C6.84071 21.393 6.82745 21.3397 6.81413 21.2862C6.7875 21.2732 6.76092 21.2596 6.73429 21.2465C6.73429 21.2199 6.73429 21.193 6.73429 21.1664C6.72093 21.1664 6.7076 21.1664 6.69434 21.1664C6.69434 21.1398 6.69434 21.1132 6.69434 21.0865C6.68098 21.0865 6.66772 21.0865 6.65436 21.0865C6.65436 21.0596 6.65436 21.033 6.65436 21.0064C6.64113 21.0064 6.62777 21.0064 6.61441 21.0064C6.61441 20.9797 6.61441 20.9528 6.61441 20.9259C6.58782 20.9129 6.5612 20.8993 6.53461 20.8863C6.49463 20.7662 6.45468 20.6461 6.41483 20.5263C6.40147 20.5263 6.38811 20.5263 6.37485 20.5263C6.37485 20.4997 6.37485 20.473 6.37485 20.4464C6.36152 20.4464 6.34826 20.4464 6.3349 20.4464C6.32164 20.3929 6.30827 20.3396 6.29495 20.2861C6.28169 20.2861 6.26832 20.2861 6.25506 20.2861C6.25506 20.2465 6.25506 20.2062 6.25506 20.1663C6.24174 20.1663 6.22837 20.1663 6.21511 20.1663C6.21511 20.1397 6.21511 20.113 6.21511 20.0864C6.20175 20.0864 6.18849 20.0864 6.17516 20.0864C6.17516 20.0462 6.17516 20.0063 6.17516 19.966C6.1619 19.966 6.14854 19.966 6.13518 19.966C6.13518 19.9397 6.13518 19.9131 6.13518 19.8862C6.12195 19.8862 6.10859 19.8862 6.09533 19.8862C6.09533 19.8463 6.09533 19.8063 6.09533 19.7661C6.08197 19.7661 6.06864 19.7661 6.05538 19.7661C6.05538 19.7261 6.05538 19.6862 6.05538 19.6463C6.04202 19.6463 6.02876 19.6463 6.01543 19.6463C6.01543 19.606 6.01543 19.5661 6.01543 19.5265C6.00217 19.5265 5.98881 19.5265 5.97545 19.5265C5.97545 19.4729 5.97545 19.4197 5.97545 19.3662C5.96219 19.3662 5.94886 19.3662 5.9356 19.3662C5.9356 19.3259 5.9356 19.2863 5.9356 19.246C5.92224 19.246 5.90888 19.246 5.89565 19.246C5.81582 18.8325 5.73588 18.419 5.65598 18.0058C5.65598 17.8594 5.65598 17.7126 5.65598 17.5662C5.64272 17.5662 5.62936 17.5662 5.6161 17.5662C5.56225 17.3723 5.61651 16.5867 5.65598 16.4457C5.65598 16.2993 5.65598 16.1523 5.65598 16.0059C5.73656 15.7214 5.76812 15.3547 5.85567 15.0856C5.85567 15.0324 5.85567 14.9788 5.85567 14.9256C5.86903 14.9256 5.88229 14.9256 5.89565 14.9256C5.89565 14.8724 5.89565 14.8191 5.89565 14.7656C5.90888 14.7656 5.92224 14.7656 5.9356 14.7656C5.9356 14.7256 5.9356 14.6857 5.9356 14.6458C5.94886 14.6458 5.96219 14.6458 5.97545 14.6458C5.97545 14.5922 5.97545 14.539 5.97545 14.4855C5.98881 14.4855 6.00217 14.4855 6.01543 14.4855C6.01543 14.4455 6.01543 14.4056 6.01543 14.3654C6.02876 14.3654 6.04202 14.3654 6.05538 14.3654C6.05538 14.3254 6.05538 14.2858 6.05538 14.2456C6.06864 14.2456 6.08197 14.2456 6.09533 14.2456C6.09533 14.2056 6.09533 14.1654 6.09533 14.1257C6.10859 14.1257 6.12195 14.1257 6.13518 14.1257C6.13518 14.0989 6.13518 14.0722 6.13518 14.0456C6.14854 14.0456 6.1619 14.0456 6.17516 14.0456C6.17516 14.0054 6.17516 13.9654 6.17516 13.9255C6.18849 13.9255 6.20175 13.9255 6.21511 13.9255C6.21511 13.8989 6.21511 13.8723 6.21511 13.8457C6.22837 13.8457 6.24174 13.8457 6.25506 13.8457C6.25506 13.8054 6.25506 13.7655 6.25506 13.7255C6.26832 13.7255 6.28169 13.7255 6.29495 13.7255C6.30827 13.672 6.32164 13.6188 6.3349 13.5652C6.34826 13.5652 6.36152 13.5652 6.37485 13.5652C6.37485 13.5389 6.37485 13.5123 6.37485 13.4857C6.38811 13.4857 6.40147 13.4857 6.41483 13.4857C6.41483 13.4451 6.41483 13.4055 6.41483 13.3653C6.42806 13.3653 6.44142 13.3653 6.45468 13.3653C6.46804 13.3117 6.48137 13.2585 6.49463 13.2052C6.50799 13.2052 6.52125 13.2052 6.53461 13.2052C6.53461 13.1783 6.53461 13.1517 6.53461 13.1254C6.5612 13.1121 6.58782 13.0987 6.61441 13.0855C6.61441 13.0585 6.61441 13.0319 6.61441 13.0053C6.62777 13.0053 6.64113 13.0053 6.65436 13.0053C6.65436 12.9787 6.65436 12.952 6.65436 12.9251C6.66772 12.9251 6.68098 12.9251 6.69434 12.9251C6.69434 12.8985 6.69434 12.8719 6.69434 12.8452C6.7076 12.8452 6.72093 12.8452 6.73429 12.8452C6.73429 12.8186 6.73429 12.7917 6.73429 12.7651C6.76092 12.7521 6.7875 12.7388 6.81413 12.7255C6.82745 12.6722 6.84071 12.6187 6.85408 12.5654C6.86734 12.5654 6.8807 12.5654 6.89403 12.5654C6.90729 12.5252 6.92065 12.4853 6.93391 12.4456C6.9605 12.432 6.98722 12.419 7.01381 12.4051C7.01381 12.3785 7.01381 12.3521 7.01381 12.3255C7.02707 12.3255 7.04043 12.3255 7.05379 12.3255C7.06702 12.2853 7.08038 12.2454 7.09364 12.2052C7.12026 12.1921 7.14695 12.1785 7.17357 12.1655C7.17357 12.1386 7.17357 12.112 7.17357 12.0853C7.21352 12.0587 7.25337 12.0321 7.29332 12.0052C7.29332 11.9785 7.29332 11.9519 7.29332 11.9253C7.33331 11.8987 7.37326 11.8718 7.4131 11.8452C7.4131 11.8185 7.4131 11.7919 7.4131 11.7653C7.47968 11.7118 7.54625 11.6585 7.61282 11.605C7.61282 11.5783 7.61282 11.552 7.61282 11.5254C7.77255 11.3787 7.93228 11.2319 8.09205 11.0852C8.23842 10.9252 8.38493 10.7652 8.5313 10.6052C8.55792 10.6052 8.58461 10.6052 8.61123 10.6052C8.66444 10.5386 8.71765 10.4718 8.77096 10.4052C8.79758 10.4052 8.82417 10.4052 8.85079 10.4052C8.87738 10.3652 8.90411 10.325 8.93069 10.2851C8.95732 10.2851 8.9839 10.2851 9.01053 10.2851C9.03715 10.2449 9.06384 10.2052 9.09043 10.165C9.11705 10.165 9.14367 10.165 9.17026 10.165C9.18362 10.1381 9.19688 10.1115 9.21021 10.0849C9.25019 10.0718 9.29004 10.0582 9.32999 10.0452C9.32999 10.0316 9.32999 10.0183 9.32999 10.0047C9.35661 10.0047 9.38323 10.0047 9.40992 10.0047C9.42318 9.97806 9.43655 9.95174 9.44977 9.92512C9.48976 9.91179 9.52971 9.8985 9.56966 9.8849C9.56966 9.87157 9.56966 9.85827 9.56966 9.84495C9.62287 9.83165 9.67611 9.81832 9.72939 9.80503C9.74265 9.77841 9.75601 9.75148 9.76927 9.72486C9.84917 9.69824 9.929 9.67161 10.0089 9.64499C10.0089 9.63139 10.0089 9.6181 10.0089 9.60477C10.0355 9.60477 10.0621 9.60477 10.0887 9.60477C10.1021 9.57815 10.1155 9.55153 10.1287 9.5249C10.2485 9.48495 10.3684 9.44473 10.4881 9.40509C10.4881 9.39179 10.4881 9.37847 10.4881 9.36487C10.5148 9.36487 10.5414 9.36487 10.568 9.36487C10.568 9.35157 10.568 9.33824 10.568 9.32495C10.6213 9.31162 10.6745 9.29833 10.7277 9.285C10.7277 9.27171 10.7277 9.25838 10.7277 9.24478C10.7677 9.24478 10.8076 9.24478 10.8476 9.24478C10.8476 9.23148 10.8476 9.21816 10.8476 9.20486C10.8742 9.20486 10.9008 9.20486 10.9274 9.20486C10.9274 9.19153 10.9274 9.17851 10.9274 9.16491C10.9674 9.16491 11.0073 9.16491 11.0472 9.16491C11.0472 9.15189 11.0472 9.13829 11.0472 9.12527C11.0738 9.12527 11.1005 9.12527 11.1271 9.12527C11.1271 9.11136 11.1271 9.09834 11.1271 9.08474C11.167 9.08474 11.2069 9.08474 11.2469 9.08474C11.2469 9.07172 11.2469 9.05812 11.2469 9.0451C11.2869 9.0451 11.3268 9.0451 11.3667 9.0451C11.3667 9.0315 11.3667 9.01847 11.3667 9.00487C11.4066 9.00487 11.4466 9.00487 11.4864 9.00487C11.4864 8.99185 11.4864 8.97798 11.4864 8.96496C11.5796 8.95136 11.6729 8.93834 11.7661 8.92474C11.7661 8.91171 11.7661 8.89811 11.7661 8.88509C11.8193 8.88509 11.8725 8.88509 11.9258 8.88509C11.9258 8.87149 11.9258 8.85847 11.9258 8.84487C11.979 8.84487 12.0322 8.84487 12.0856 8.84487C12.0856 8.83154 12.0856 8.81852 12.0856 8.80492C12.1521 8.80492 12.2187 8.80492 12.2852 8.80492C12.2852 8.7919 12.2852 8.7783 12.2852 8.76528C12.3517 8.76528 12.4183 8.76528 12.4848 8.76528C12.4848 8.75168 12.4848 8.73865 12.4848 8.72475C12.5648 8.72475 12.6446 8.72475 12.7245 8.72475C12.7245 8.71173 12.7245 8.69813 12.7245 8.6851C12.8177 8.6851 12.9109 8.6851 13.004 8.6851C13.004 8.6715 13.004 8.65848 13.004 8.64488C13.1504 8.64488 13.2969 8.64488 13.4433 8.64488C13.5838 8.60582 14.369 8.55084 14.5615 8.60524C14.5615 8.61826 14.5615 8.63186 14.5615 8.64488C14.7079 8.64488 14.8543 8.64488 15.0007 8.64488C15.0007 8.65848 15.0007 8.6715 15.0007 8.6851C15.0939 8.6851 15.1871 8.6851 15.2803 8.6851C15.2803 8.69813 15.2803 8.71173 15.2803 8.72475C15.3602 8.72475 15.44 8.72475 15.5199 8.72475C15.5199 8.73865 15.5199 8.75168 15.5199 8.76528C15.5865 8.76528 15.6531 8.76528 15.7196 8.76528C15.7196 8.7783 15.7196 8.7919 15.7196 8.80492C15.8394 8.81852 15.9592 8.83154 16.079 8.84487C16.079 8.85847 16.079 8.87149 16.079 8.88509C16.1323 8.88509 16.1855 8.88509 16.2387 8.88509C16.2387 8.89811 16.2387 8.91171 16.2387 8.92474C16.3319 8.93834 16.4251 8.95136 16.5183 8.96496C16.5183 8.97798 16.5183 8.99185 16.5183 9.00487C16.5582 9.00487 16.5981 9.00487 16.6381 9.00487C16.6381 9.01847 16.6381 9.0315 16.6381 9.0451C16.6781 9.0451 16.7179 9.0451 16.7579 9.0451C16.7579 9.05812 16.7579 9.07172 16.7579 9.08474C16.7979 9.08474 16.8378 9.08474 16.8777 9.08474C16.8777 9.09834 16.8777 9.11136 16.8777 9.12527C16.9043 9.12527 16.931 9.12527 16.9576 9.12527C16.9576 9.13829 16.9576 9.15189 16.9576 9.16491C17.1047 9.22944 17.2581 9.2138 17.3569 9.32495C17.3436 9.32495 17.3303 9.32495 17.3169 9.32495C17.2556 9.43202 17.1603 9.48206 17.0774 9.56513C16.9176 9.72486 16.7579 9.8849 16.5981 10.0452C16.4518 10.2052 16.3053 10.3652 16.1589 10.525C16.0923 10.5785 16.0257 10.6318 15.9592 10.685C15.9592 10.7119 15.9592 10.7386 15.9592 10.7652C15.9192 10.7782 15.8794 10.7918 15.8394 10.8048C15.8261 10.8317 15.8128 10.8583 15.7994 10.885C15.7329 10.9382 15.6663 10.9918 15.5998 11.045C15.5333 11.1388 15.4666 11.2319 15.4001 11.3249C15.3735 11.3249 15.3468 11.3249 15.3202 11.3249C15.1605 11.4988 15.0007 11.6718 14.841 11.8452C14.708 11.8452 14.5747 11.8452 14.4417 11.8452C14.3916 11.8003 13.6922 11.7682 13.5631 11.8052C13.5631 11.8185 13.5631 11.8318 13.5631 11.8452C13.4433 11.8452 13.3235 11.8452 13.2037 11.8452C13.2037 11.8585 13.2037 11.8718 13.2037 11.8854C13.1372 11.8854 13.0706 11.8854 13.004 11.8854C13.004 11.8987 13.004 11.912 13.004 11.9253C12.9375 11.9253 12.8709 11.9253 12.8043 11.9253C12.8043 11.9386 12.8043 11.9519 12.8043 11.9649C12.7511 11.9649 12.6978 11.9649 12.6446 11.9649C12.6446 11.9785 12.6446 11.9916 12.6446 12.0052C12.6046 12.0052 12.5648 12.0052 12.5248 12.0052C12.5248 12.0185 12.5248 12.0321 12.5248 12.0451C12.4716 12.0451 12.4183 12.0451 12.3651 12.0451C12.3651 12.0587 12.3651 12.0717 12.3651 12.0853C12.3385 12.0853 12.3119 12.0853 12.2852 12.0853C12.2852 12.0984 12.2852 12.112 12.2852 12.125C12.2053 12.1386 12.1254 12.1519 12.0456 12.1655C12.0456 12.1785 12.0456 12.1921 12.0456 12.2052C11.9924 12.2188 11.9391 12.2318 11.8858 12.2454C11.8858 12.2584 11.8858 12.272 11.8858 12.2853C11.8459 12.2853 11.8059 12.2853 11.7661 12.2853C11.7661 12.2989 11.7661 12.3119 11.7661 12.3255C11.7395 12.3255 11.7127 12.3255 11.6862 12.3255C11.6862 12.3385 11.6862 12.3521 11.6862 12.3652C11.6595 12.3652 11.6329 12.3652 11.6063 12.3652C11.593 12.3921 11.5797 12.419 11.5664 12.4456C11.4865 12.472 11.4066 12.4986 11.3267 12.5252C11.3134 12.5521 11.3001 12.5788 11.2869 12.6054C11.2335 12.6187 11.1803 12.632 11.1271 12.6453C11.1005 12.6855 11.0738 12.7255 11.0472 12.7651C11.0206 12.7651 10.994 12.7651 10.9674 12.7651C10.954 12.7917 10.9408 12.8186 10.9274 12.8452C10.9008 12.8452 10.8742 12.8452 10.8476 12.8452C10.8076 12.8985 10.7677 12.952 10.7277 13.0053C9.98146 13.5441 9.47354 14.3448 9.09043 15.2454C9.0771 15.3391 9.06374 15.4323 9.05048 15.5258C9.03715 15.5258 9.02389 15.5258 9.01053 15.5258C9.01053 15.5657 9.01053 15.6057 9.01053 15.6456C8.99727 15.6456 8.9839 15.6456 8.97058 15.6456C8.97058 15.6991 8.97058 15.7524 8.97058 15.8056C8.95732 15.8056 8.94395 15.8056 8.93069 15.8056C8.93069 15.8725 8.93069 15.9387 8.93069 16.0059C8.76658 16.5458 8.7642 17.4661 8.93069 18.0058C8.94395 18.1262 8.95732 18.246 8.97058 18.3663C8.9839 18.3663 8.99727 18.3663 9.01053 18.3663C9.01053 18.406 9.01053 18.4459 9.01053 18.4861C9.02389 18.4861 9.03715 18.4861 9.05048 18.4861C9.06374 18.5793 9.0771 18.6728 9.09043 18.766C9.10369 18.766 9.11705 18.766 9.13031 18.766C9.13031 18.7926 9.13031 18.8192 9.13031 18.8461C9.14367 18.8461 9.157 18.8461 9.17026 18.8461C9.17026 18.8861 9.17026 18.926 9.17026 18.966C9.18362 18.966 9.19688 18.966 9.21021 18.966C9.22347 19.0195 9.23683 19.0727 9.25019 19.1263C9.26345 19.1263 9.27678 19.1263 9.29004 19.1263C9.32999 19.246 9.36997 19.3662 9.40992 19.486C9.43655 19.4996 9.46313 19.5129 9.48976 19.5265C9.50308 19.5794 9.51634 19.6327 9.52971 19.6862C9.55633 19.6995 9.58292 19.7128 9.60954 19.7261C9.62287 19.7797 9.63623 19.8329 9.64949 19.8862C9.68944 19.9131 9.72939 19.9397 9.76927 19.966C9.78263 20.0063 9.79596 20.0462 9.80922 20.0864C9.82258 20.0864 9.83584 20.0864 9.84917 20.0864C9.84917 20.113 9.84917 20.1397 9.84917 20.1663C9.90241 20.2062 9.95573 20.2465 10.0089 20.2861C10.6594 21.1919 11.6209 21.7122 12.8043 22.0863C12.8709 22.0863 12.9375 22.0863 13.004 22.0863C13.004 22.0996 13.004 22.113 13.004 22.1266C13.0706 22.1266 13.1372 22.1266 13.2037 22.1266C13.2037 22.1399 13.2037 22.1532 13.2037 22.1665C13.3235 22.1665 13.4433 22.1665 13.5631 22.1665C13.5631 22.1798 13.5631 22.1931 13.5631 22.2064C13.7592 22.2614 14.3028 22.2055 14.4417 22.1665C14.5615 22.1665 14.6812 22.1665 14.801 22.1665C14.801 22.1532 14.801 22.1399 14.801 22.1266C14.8676 22.1266 14.9342 22.1266 15.0007 22.1266C15.0007 22.113 15.0007 22.0996 15.0007 22.0863C15.0673 22.0863 15.1339 22.0863 15.2004 22.0863C15.2004 22.0733 15.2004 22.0597 15.2004 22.0467C15.2537 22.0467 15.307 22.0467 15.3602 22.0467C15.3602 22.0331 15.3602 22.0201 15.3602 22.0065C15.4001 22.0065 15.44 22.0065 15.48 22.0065C15.48 21.9931 15.48 21.9795 15.48 21.9665C15.5332 21.9665 15.5865 21.9665 15.6397 21.9665C15.6397 21.9529 15.6397 21.9399 15.6397 21.9266C15.6663 21.9266 15.6929 21.9266 15.7196 21.9266C15.7196 21.9133 15.7196 21.9 15.7196 21.8867C15.7994 21.8734 15.8794 21.8598 15.9592 21.8464C15.9592 21.8331 15.9592 21.8198 15.9592 21.8065C16.0124 21.7932 16.0657 21.7799 16.1189 21.7666C16.1189 21.7532 16.1189 21.7399 16.1189 21.7263C16.2387 21.6864 16.3586 21.6465 16.4784 21.6065C16.4916 21.5796 16.505 21.553 16.5183 21.5264C16.5715 21.5134 16.6248 21.4998 16.6781 21.4867C16.6913 21.4598 16.7047 21.4332 16.7179 21.4066C16.7445 21.4066 16.7712 21.4066 16.7979 21.4066C16.7979 21.393 16.7979 21.38 16.7979 21.3664C16.8244 21.3664 16.8511 21.3664 16.8777 21.3664C16.9043 21.3264 16.931 21.2862 16.9576 21.2465C16.9842 21.2465 17.0108 21.2465 17.0374 21.2465C17.0508 21.2199 17.064 21.193 17.0774 21.1664C17.104 21.1664 17.1306 21.1664 17.1573 21.1664C17.1971 21.1132 17.2371 21.0596 17.2771 21.0064C17.3037 21.0064 17.3303 21.0064 17.3569 21.0064C17.4767 20.8729 17.5965 20.7398 17.7163 20.6065C17.8095 20.5263 17.9027 20.4464 17.9958 20.3662C17.9958 20.3396 17.9958 20.313 17.9958 20.2861C18.0491 20.2465 18.1024 20.2062 18.1556 20.1663C18.1556 20.1397 18.1556 20.113 18.1556 20.0864C18.1822 20.0728 18.2089 20.0598 18.2355 20.0462C18.2355 20.0193 18.2355 19.9927 18.2355 19.966C18.2754 19.9397 18.3153 19.9131 18.3553 19.8862C18.3553 19.8595 18.3553 19.8329 18.3553 19.8063C18.3685 19.8063 18.3819 19.8063 18.3952 19.8063C18.3952 19.7797 18.3952 19.7528 18.3952 19.7261C18.4219 19.7128 18.4485 19.6995 18.4751 19.6862C18.4884 19.6327 18.5017 19.5794 18.515 19.5265C18.5416 19.5129 18.5682 19.4996 18.5949 19.486C18.5949 19.4593 18.5949 19.4327 18.5949 19.4061C18.6082 19.4061 18.6215 19.4061 18.6348 19.4061C18.6482 19.3526 18.6614 19.2993 18.6748 19.246C18.688 19.246 18.7014 19.246 18.7147 19.246C18.7147 19.2061 18.7147 19.1659 18.7147 19.1263C18.728 19.1263 18.7413 19.1263 18.7546 19.1263C18.7679 19.0727 18.7813 19.0195 18.7946 18.966C18.8079 18.966 18.8212 18.966 18.8345 18.966C18.8478 18.8994 18.8611 18.8325 18.8745 18.766C18.8877 18.766 18.9011 18.766 18.9144 18.766C18.9277 18.6728 18.941 18.5793 18.9543 18.4861C18.9677 18.4861 18.9809 18.4861 18.9943 18.4861C18.9943 18.4459 18.9943 18.406 18.9943 18.3663C19.0075 18.3663 19.0209 18.3663 19.0342 18.3663C19.0342 18.3128 19.0342 18.2596 19.0342 18.2063C19.0475 18.2063 19.0608 18.2063 19.0741 18.2063C19.0741 18.1392 19.0741 18.0729 19.0741 18.0058C19.0874 18.0058 19.1008 18.0058 19.114 18.0058C19.114 17.9395 19.114 17.8727 19.114 17.8061C19.1274 17.8061 19.1407 17.8061 19.154 17.8061C19.154 17.686 19.154 17.5662 19.154 17.4458C19.2575 17.0772 19.1544 16.6003 19.154 16.2055C19.2472 16.1393 19.3403 16.0721 19.4335 16.0059C19.4469 15.9659 19.4601 15.9257 19.4735 15.8858C19.6332 15.7524 19.7929 15.619 19.9527 15.4855C19.9527 15.4589 19.9527 15.4323 19.9527 15.4054C19.9659 15.4054 19.9793 15.4054 19.9927 15.4054C20.0459 15.3391 20.0991 15.272 20.1524 15.2057C20.179 15.2057 20.2056 15.2057 20.2322 15.2057C20.2456 15.1791 20.2588 15.1522 20.2722 15.1256C20.2854 15.1256 20.2988 15.1256 20.3121 15.1256C20.4319 14.9791 20.5517 14.8321 20.6715 14.6857C20.6981 14.6857 20.7248 14.6857 20.7514 14.6857C20.778 14.6458 20.8046 14.6056 20.8312 14.5656C20.8578 14.5523 20.8845 14.539 20.9111 14.5257C20.9111 14.4988 20.9111 14.4721 20.9111 14.4455C20.991 14.379 21.0709 14.3124 21.1507 14.2456C21.1641 14.2186 21.1773 14.192 21.1907 14.1654C21.2173 14.1654 21.2439 14.1654 21.2705 14.1654C21.2972 14.1257 21.3238 14.0853 21.3504 14.0456C21.377 14.032 21.4036 14.019 21.4302 14.0054C21.4302 13.979 21.4302 13.9518 21.4302 13.9255C21.4436 13.9255 21.4569 13.9255 21.4702 13.9255C21.5234 13.859 21.5767 13.7921 21.6299 13.7255C21.6699 13.7255 21.7098 13.7255 21.7497 13.7255Z" fill="white"/>
</svg>
